<svg data-v-423bf9ae="" xmlns="http://www.w3.org/2000/svg" viewBox="0 0 317 91" class="iconLeftSlogan"><!----><!----><!----><g data-v-423bf9ae="" id="eb521e53-47da-434f-9481-7240dde90172" fill="#000000" transform="matrix(4.470938871750703,0,0,4.470938871750703,93.36018704620707,-13.368107984428534)"><path d="M7.28 4.61L7.28 4.61L6.13 6.00Q5.98 5.54 5.74 5.13Q5.50 4.72 5.17 4.42Q4.85 4.11 4.43 3.92Q4.01 3.74 3.50 3.74L3.50 3.74Q3.13 3.74 2.82 3.87Q2.50 4.01 2.27 4.24Q2.03 4.48 1.90 4.80Q1.76 5.12 1.76 5.49L1.76 5.49Q1.76 5.87 1.91 6.21Q2.05 6.54 2.29 6.81Q2.53 7.08 2.84 7.28Q3.15 7.48 3.49 7.59L3.49 7.59Q3.82 7.70 4.19 7.85Q4.56 7.99 4.92 8.18Q5.27 8.37 5.59 8.61Q5.91 8.85 6.16 9.14Q6.41 9.43 6.55 9.79Q6.69 10.15 6.69 10.58L6.69 10.58Q6.69 11.19 6.42 11.68Q6.15 12.17 5.71 12.50Q5.28 12.84 4.71 13.02Q4.15 13.19 3.57 13.19L3.57 13.19Q3.17 13.19 2.77 13.08Q2.36 12.96 1.99 12.76Q1.61 12.56 1.29 12.29Q0.96 12.02 0.72 11.72L0.72 11.72L1.83 10.45Q1.93 10.77 2.19 11.14Q2.45 11.51 2.79 11.83Q3.13 12.14 3.52 12.35Q3.92 12.56 4.29 12.56L4.29 12.56Q4.50 12.56 4.72 12.45Q4.95 12.34 5.14 12.16Q5.33 11.99 5.45 11.79Q5.57 11.58 5.57 11.38L5.57 11.38Q5.57 11.08 5.45 10.81Q5.33 10.54 5.12 10.30Q4.92 10.06 4.66 9.86Q4.40 9.66 4.11 9.50Q3.83 9.34 3.54 9.22Q3.26 9.10 3.02 9.03L3.02 9.03Q2.55 8.89 2.10 8.62Q1.65 8.35 1.31 7.98Q0.96 7.60 0.75 7.13Q0.53 6.67 0.53 6.13L0.53 6.13Q0.53 5.67 0.68 5.26Q0.82 4.85 1.07 4.50Q1.33 4.16 1.67 3.87Q2.01 3.59 2.41 3.39Q2.80 3.20 3.23 3.09Q3.66 2.99 4.10 2.99L4.10 2.99Q5.06 2.99 5.88 3.41Q6.70 3.84 7.28 4.61ZM12.46 11.48L12.67 11.70Q12.43 12.01 12.14 12.28Q11.86 12.54 11.53 12.74Q11.20 12.94 10.83 13.06Q10.46 13.17 10.06 13.17L10.06 13.17Q9.56 13.17 9.13 12.99Q8.71 12.81 8.40 12.49Q8.09 12.17 7.92 11.74Q7.75 11.31 7.75 10.81L7.75 10.81Q7.75 10.40 7.87 10.00Q7.98 9.60 8.20 9.26Q8.41 8.91 8.70 8.61Q8.99 8.31 9.34 8.10Q9.69 7.89 10.08 7.77Q10.47 7.65 10.88 7.65L10.88 7.65Q11.16 7.65 11.42 7.72Q11.68 7.79 11.87 7.93Q12.07 8.08 12.19 8.31Q12.30 8.54 12.30 8.85L12.30 8.85Q12.30 9.11 12.15 9.40Q12.00 9.69 11.75 9.97Q11.50 10.26 11.18 10.54Q10.87 10.81 10.54 11.05Q10.22 11.29 9.92 11.46Q9.62 11.64 9.39 11.74L9.39 11.74Q9.65 12.05 9.98 12.25Q10.32 12.45 10.69 12.45L10.69 12.45Q10.93 12.45 11.18 12.36Q11.42 12.26 11.65 12.12Q11.88 11.98 12.09 11.81Q12.30 11.63 12.46 11.48L12.46 11.48ZM11.02 9.11L11.02 9.11Q11.02 8.95 10.97 8.80Q10.92 8.66 10.82 8.56Q10.73 8.45 10.59 8.38Q10.46 8.32 10.29 8.32L10.29 8.32Q9.98 8.32 9.72 8.53Q9.46 8.75 9.27 9.06Q9.08 9.38 8.98 9.73Q8.87 10.08 8.87 10.35L8.87 10.35Q8.87 10.61 8.96 10.88Q9.04 11.16 9.18 11.41L9.18 11.41Q9.45 11.26 9.78 10.99Q10.10 10.73 10.37 10.41Q10.65 10.09 10.83 9.75Q11.02 9.41 11.02 9.11ZM15.94 12.03L16.13 12.24Q15.97 12.57 15.76 12.75Q15.56 12.93 15.36 13.01L15.36 13.01Q15.13 13.10 14.90 13.12L14.90 13.12Q14.59 13.12 14.39 13.02Q14.20 12.93 14.09 12.77Q13.97 12.61 13.93 12.41Q13.88 12.22 13.88 12.01L13.88 12.01L13.88 8.43L13.16 8.43L13.45 7.75L13.88 7.75L13.88 5.33L15.13 4.89L15.13 7.75L16.43 7.75L16.15 8.43L15.13 8.43L15.13 12.04Q15.13 12.21 15.21 12.30Q15.29 12.40 15.40 12.40Q15.52 12.41 15.66 12.32Q15.80 12.23 15.94 12.03L15.94 12.03ZM26.81 4.61L26.81 4.61L25.66 6.00Q25.51 5.54 25.27 5.13Q25.03 4.72 24.71 4.42Q24.38 4.11 23.96 3.92Q23.54 3.74 23.03 3.74L23.03 3.74Q22.66 3.74 22.35 3.87Q22.03 4.01 21.80 4.24Q21.56 4.48 21.43 4.80Q21.29 5.12 21.29 5.49L21.29 5.49Q21.29 5.87 21.44 6.21Q21.58 6.54 21.82 6.81Q22.06 7.08 22.37 7.28Q22.68 7.48 23.02 7.59L23.02 7.59Q23.35 7.70 23.72 7.85Q24.09 7.99 24.45 8.18Q24.80 8.37 25.12 8.61Q25.44 8.85 25.69 9.14Q25.94 9.43 26.08 9.79Q26.22 10.15 26.22 10.58L26.22 10.58Q26.22 11.19 25.95 11.68Q25.68 12.17 25.25 12.50Q24.81 12.84 24.24 13.02Q23.68 13.19 23.10 13.19L23.10 13.19Q22.70 13.19 22.30 13.08Q21.89 12.96 21.52 12.76Q21.14 12.56 20.82 12.29Q20.49 12.02 20.25 11.72L20.25 11.72L21.36 10.45Q21.46 10.77 21.72 11.14Q21.98 11.51 22.32 11.83Q22.66 12.14 23.05 12.35Q23.45 12.56 23.82 12.56L23.82 12.56Q24.03 12.56 24.25 12.45Q24.48 12.34 24.67 12.16Q24.86 11.99 24.98 11.79Q25.10 11.58 25.10 11.38L25.10 11.38Q25.10 11.08 24.98 10.81Q24.86 10.54 24.65 10.30Q24.45 10.06 24.19 9.86Q23.93 9.66 23.64 9.50Q23.36 9.34 23.07 9.22Q22.79 9.10 22.55 9.03L22.55 9.03Q22.08 8.89 21.63 8.62Q21.18 8.35 20.84 7.98Q20.49 7.60 20.28 7.13Q20.06 6.67 20.06 6.13L20.06 6.13Q20.06 5.67 20.21 5.26Q20.35 4.85 20.60 4.50Q20.86 4.16 21.20 3.87Q21.54 3.59 21.94 3.39Q22.33 3.20 22.76 3.09Q23.19 2.99 23.63 2.99L23.63 2.99Q24.59 2.99 25.41 3.41Q26.23 3.84 26.81 4.61ZM30.04 13.16L30.04 13.16Q29.80 13.16 29.59 13.09Q29.37 13.03 29.18 12.88L29.18 12.88L29.71 12.11Q29.84 12.29 30.01 12.39Q30.19 12.49 30.40 12.49L30.40 12.49Q30.62 12.49 30.78 12.38Q30.93 12.26 31.04 12.08Q31.14 11.89 31.21 11.67Q31.28 11.44 31.32 11.20Q31.35 10.97 31.36 10.76Q31.38 10.54 31.38 10.39L31.38 10.39Q31.38 10.10 31.30 9.77Q31.22 9.43 31.06 9.14Q30.90 8.85 30.65 8.65Q30.39 8.46 30.04 8.46L30.04 8.46Q29.80 8.46 29.64 8.58Q29.47 8.70 29.36 8.89Q29.24 9.08 29.18 9.33Q29.11 9.58 29.08 9.83Q29.05 10.08 29.05 10.32Q29.04 10.55 29.04 10.73L29.04 10.73L29.04 15.98L27.79 16.41L27.79 8.74Q27.79 8.60 27.73 8.49Q27.66 8.37 27.51 8.37L27.51 8.37Q27.34 8.37 27.20 8.50Q27.06 8.63 26.98 8.75L26.98 8.75L26.80 8.54Q26.88 8.37 27.01 8.21Q27.13 8.05 27.29 7.93Q27.45 7.81 27.64 7.73Q27.83 7.66 28.03 7.66L28.03 7.66Q28.33 7.66 28.52 7.75Q28.71 7.83 28.83 7.99Q28.94 8.15 28.99 8.37Q29.04 8.59 29.04 8.85L29.04 8.85Q29.15 8.64 29.30 8.43Q29.44 8.21 29.63 8.04Q29.81 7.88 30.03 7.77Q30.26 7.66 30.52 7.66L30.52 7.66Q30.99 7.66 31.36 7.87Q31.73 8.08 31.98 8.42Q32.22 8.76 32.35 9.18Q32.48 9.60 32.48 10.04L32.48 10.04Q32.48 10.58 32.33 11.14Q32.18 11.69 31.87 12.14Q31.57 12.59 31.11 12.88Q30.65 13.16 30.04 13.16ZM38.82 12.01L39.01 12.22Q38.92 12.40 38.80 12.56Q38.68 12.71 38.52 12.84Q38.36 12.96 38.17 13.03Q37.98 13.10 37.78 13.10L37.78 13.10Q37.24 13.10 37.00 12.81Q36.76 12.51 36.76 12.00L36.76 12.00L36.76 11.87Q36.64 12.11 36.49 12.34Q36.33 12.57 36.14 12.76Q35.94 12.94 35.70 13.06Q35.46 13.17 35.17 13.17L35.17 13.17Q34.73 13.17 34.38 13.00Q34.04 12.83 33.81 12.54Q33.58 12.25 33.46 11.86Q33.35 11.47 33.35 11.03L33.35 11.03Q33.35 10.44 33.55 9.85Q33.76 9.26 34.14 8.79Q34.52 8.33 35.05 8.04Q35.58 7.75 36.23 7.75L36.23 7.75Q36.49 7.75 36.75 7.79Q37.01 7.84 37.25 7.95Q37.48 8.05 37.68 8.22Q37.87 8.39 37.99 8.64L37.99 8.64L36.98 9.07Q36.89 8.94 36.79 8.82Q36.68 8.70 36.56 8.61Q36.43 8.52 36.29 8.47Q36.14 8.42 35.98 8.42L35.98 8.42Q35.63 8.42 35.35 8.63Q35.08 8.85 34.88 9.17Q34.69 9.50 34.58 9.86Q34.48 10.22 34.48 10.51L34.48 10.51Q34.48 10.77 34.53 11.10Q34.58 11.42 34.71 11.71Q34.84 12.00 35.05 12.20Q35.27 12.39 35.59 12.39L35.59 12.39Q35.84 12.39 36.03 12.28Q36.21 12.17 36.34 11.99Q36.47 11.81 36.56 11.57Q36.64 11.33 36.69 11.09Q36.73 10.84 36.75 10.60Q36.76 10.36 36.76 10.17L36.76 10.17L36.76 9.69L38.01 9.26L38.01 12.03Q38.01 12.17 38.08 12.28Q38.14 12.39 38.29 12.39L38.29 12.39Q38.46 12.39 38.60 12.27Q38.74 12.14 38.82 12.01L38.82 12.01ZM44.16 11.31L44.37 11.55Q44.13 11.86 43.84 12.15Q43.56 12.44 43.23 12.67Q42.90 12.89 42.53 13.03Q42.16 13.17 41.76 13.17L41.76 13.17Q41.25 13.17 40.83 13.00Q40.41 12.82 40.10 12.49Q39.79 12.16 39.62 11.70Q39.45 11.23 39.45 10.66L39.45 10.66Q39.45 10.06 39.69 9.52Q39.94 8.98 40.34 8.57Q40.75 8.16 41.29 7.93Q41.83 7.69 42.42 7.69L42.42 7.69Q42.66 7.69 42.89 7.73Q43.13 7.78 43.34 7.87Q43.56 7.96 43.74 8.12Q43.92 8.27 44.04 8.48L44.04 8.48L43.07 9.02Q43.00 8.85 42.87 8.73Q42.75 8.61 42.59 8.52Q42.43 8.44 42.26 8.40Q42.08 8.36 41.92 8.36L41.92 8.36Q41.59 8.36 41.33 8.51Q41.07 8.65 40.89 8.89Q40.71 9.13 40.61 9.42Q40.52 9.72 40.52 10.03L40.52 10.03Q40.52 10.62 40.66 11.07Q40.80 11.52 41.06 11.83Q41.31 12.13 41.65 12.29Q41.99 12.45 42.40 12.45L42.40 12.45Q42.63 12.45 42.88 12.33Q43.12 12.22 43.35 12.04Q43.58 11.87 43.79 11.67Q44.00 11.47 44.16 11.31L44.16 11.31ZM49.65 11.48L49.85 11.70Q49.62 12.01 49.33 12.28Q49.05 12.54 48.72 12.74Q48.38 12.94 48.02 13.06Q47.65 13.17 47.25 13.17L47.25 13.17Q46.74 13.17 46.32 12.99Q45.90 12.81 45.59 12.49Q45.28 12.17 45.11 11.74Q44.94 11.31 44.94 10.81L44.94 10.81Q44.94 10.40 45.06 10.00Q45.17 9.60 45.38 9.26Q45.60 8.91 45.89 8.61Q46.18 8.31 46.53 8.10Q46.87 7.89 47.26 7.77Q47.65 7.65 48.06 7.65L48.06 7.65Q48.35 7.65 48.61 7.72Q48.86 7.79 49.06 7.93Q49.26 8.08 49.38 8.31Q49.49 8.54 49.49 8.85L49.49 8.85Q49.49 9.11 49.34 9.40Q49.18 9.69 48.94 9.97Q48.69 10.26 48.37 10.54Q48.06 10.81 47.73 11.05Q47.41 11.29 47.11 11.46Q46.81 11.64 46.58 11.74L46.58 11.74Q46.83 12.05 47.17 12.25Q47.50 12.45 47.88 12.45L47.88 12.45Q48.12 12.45 48.36 12.36Q48.61 12.26 48.84 12.12Q49.07 11.98 49.28 11.81Q49.49 11.63 49.65 11.48L49.65 11.48ZM48.21 9.11L48.21 9.11Q48.21 8.95 48.16 8.80Q48.10 8.66 48.01 8.56Q47.91 8.45 47.78 8.38Q47.65 8.32 47.48 8.32L47.48 8.32Q47.17 8.32 46.91 8.53Q46.65 8.75 46.46 9.06Q46.27 9.38 46.17 9.73Q46.06 10.08 46.06 10.35L46.06 10.35Q46.06 10.61 46.14 10.88Q46.22 11.16 46.37 11.41L46.37 11.41Q46.64 11.26 46.96 10.99Q47.28 10.73 47.56 10.41Q47.84 10.09 48.02 9.75Q48.21 9.41 48.21 9.11Z"></path></g><defs data-v-423bf9ae=""><linearGradient data-v-423bf9ae="" gradientTransform="rotate(25)" id="fbfea80f-88a6-4985-9392-74ced813f475" x1="0%" y1="0%" x2="100%" y2="0%"><stop data-v-423bf9ae="" offset="0%" style="stop-color: rgb(1, 100, 139); stop-opacity: 1;"></stop><stop data-v-423bf9ae="" offset="100%" style="stop-color: rgb(91, 208, 164); stop-opacity: 1;"></stop></linearGradient></defs><g data-v-423bf9ae="" id="3679dd14-5bc8-40d8-bd8e-18ce9fe1fea1" transform="matrix(1.0000023735894097,0,0,1.0000023735894097,-11.86491817978579,-5.0002254930934384)" stroke="none" fill="url(#fbfea80f-88a6-4985-9392-74ced813f475)"><path stroke-width=".374" stroke-miterlimit="10" d="M68.084 53.169c-.304.245-1.561 0-1.561 0V5.123s1.284-.275 1.561 0c8.494 8.493 9.343 40.497 0 48.046z"></path><path d="M81.103 57.882H66.524v-.748h14.579c.562 0 .958-.158 1.21-.481.482-.619.338-1.744.242-2.125-.232-.9-5.691-22.112-6.02-23.862-.259-1.381-1.648-1.167-1.708-1.157l-.122-.739c.751-.125 2.252.083 2.566 1.758.323 1.725 5.952 23.593 6.009 23.814.018.072.426 1.739-.377 2.771-.397.511-1.003.769-1.8.769zM60.2 56.979l.015.373-8.695.34-.015-.373z"></path><circle cx="60.208" cy="57.426" r=".436"></circle><circle cx="32.018" cy="24.19" r="8.49"></circle><path d="M33.387 66.143a6.739 6.739 0 01-7.413 5.99l-1.861-.197a6.738 6.738 0 01-5.99-7.412l2.942-26.627a6.74 6.74 0 017.413-5.991l1.861.198a6.738 6.738 0 015.99 7.412l-2.942 26.627z"></path><path d="M37.69 52.847a2.997 2.997 0 01-3.276-1.638l-6.14-12.729a2.995 2.995 0 115.395-2.603l4.903 10.164 14.287-6.019a2.995 2.995 0 112.325 5.52l-16.911 7.124c-.19.083-.386.142-.583.181zM48.268 68.125c0 2.223-2.076 4.024-4.636 4.024H23.813c-2.561 0-5.386-3.3-5.386-5.522l.749 1.498c0-2.223 2.076-4.024 4.637-4.024h23.008c2.561 0 1.447 1.802 1.447 4.024z"></path><path d="M53.925 87.53c.344 2.496-1.079 4.754-3.178 5.044-2.1.289-4.081-1.499-4.425-3.994l-2.678-19.398c-.345-2.496 1.078-4.754 3.177-5.044 2.1-.29 4.081 1.498 4.425 3.994l2.679 19.398zM16.162 74.938c-.902 0-2.118-.187-3.003-1.03-.599-.57-1.249-1.656-.947-3.587 1.381-8.849.164-36.191.151-36.466a1.123 1.123 0 112.244-.102c.051 1.133 1.24 27.845-.176 36.915-.122.779-.028 1.322.277 1.614.515.491 1.733.441 2.21.344.07-.015.141-.022.213-.023l22.342-.267a1.124 1.124 0 01.027 2.246l-22.246.266c-.2.034-.599.09-1.092.09zM48.268 57.862h39.597v1.498H48.268z"></path><path d="M49.024 95a.808.808 0 01-.289-.054c-.364-.139-.531-.512-.371-.83L65.94 58.989c.111-.223.359-.37.638-.377.281-.003.537.126.664.343l20.544 35.128c.181.31.041.689-.313.848-.356.16-.789.036-.97-.273L66.651 60.713l-16.966 33.91c-.119.236-.383.377-.661.377zM26.59 74.198h1.629v16.011H26.59z"></path><circle cx="33.943" cy="93.325" r="1.675"></circle><circle cx="36.448" cy="93.325" r="1.676"></circle><circle cx="21.464" cy="93.325" r="1.676"></circle><circle cx="19.177" cy="93.325" r="1.676"></circle><path stroke="#1A171B" stroke-width="1.498" stroke-miterlimit="10" d="M20.852 93.325l6.617-3.117 7.026 2.743"></path></g><!----><g data-v-423bf9ae="" id="80f5e616-042f-4a56-a626-7db75ae1304c" fill="#000000" transform="matrix(0.6987458171709829,0,0,0.6987458171709829,95.65990239869659,57.973638026721886)"><path d="M0.10 3.44C0.10 3.68 0.18 3.70 0.35 3.70L0.76 3.70C0.88 3.70 3.14 7.74 3.54 8.50C3.60 8.60 3.64 8.65 3.64 8.81C3.64 10.50 3.63 12.18 3.50 12.18L2.79 12.18C2.56 12.18 2.52 12.19 2.52 12.39C2.52 12.63 2.53 12.68 2.73 12.68C2.93 12.68 3.74 12.64 4.33 12.64C5.15 12.64 5.68 12.68 6.01 12.68C6.17 12.68 6.20 12.61 6.20 12.40C6.20 12.24 6.17 12.18 6.01 12.18L5.04 12.18C4.94 12.18 4.91 9.72 4.91 8.22C4.91 8.18 4.91 8.15 4.96 8.09C5.50 7.22 7.45 3.70 7.52 3.70L7.99 3.70C8.16 3.70 8.26 3.68 8.26 3.44C8.26 3.22 8.18 3.19 7.99 3.19C7.77 3.19 7.53 3.23 6.93 3.23C6.34 3.23 6.01 3.19 5.84 3.19C5.64 3.19 5.60 3.25 5.60 3.49C5.60 3.68 5.67 3.70 5.89 3.70L6.62 3.70C6.64 3.70 6.65 3.71 6.65 3.74C6.65 4.05 5.08 6.99 4.70 7.71C4.59 7.92 4.59 7.88 4.48 7.67C4.07 6.89 2.79 4.56 2.49 3.85C2.44 3.71 2.42 3.70 2.60 3.70L3.43 3.70C3.65 3.70 3.68 3.68 3.68 3.49C3.68 3.25 3.64 3.19 3.49 3.19C3.25 3.19 2.63 3.23 1.83 3.23C1.02 3.23 0.53 3.19 0.35 3.19C0.17 3.19 0.10 3.21 0.10 3.44ZM15.39 8.15C15.39 11.17 17.72 12.80 19.98 12.80C22.76 12.80 24.74 10.89 24.74 8.06C24.74 5.33 22.99 3.11 20.19 3.11C17.58 3.11 15.39 5.10 15.39 8.15ZM16.79 7.77C16.79 5.64 18.07 3.58 20.05 3.58C22.29 3.58 23.37 5.81 23.37 7.94C23.37 10.08 22.26 12.32 19.99 12.32C18.00 12.32 16.79 10.28 16.79 7.77ZM32.84 3.51C32.84 3.75 32.93 3.77 33.10 3.77L33.63 3.77C33.68 3.77 33.68 4.12 33.68 4.55C33.68 5.66 33.67 8.96 33.67 9.42C33.67 11.13 33.92 12.80 36.78 12.80C37.86 12.80 39.02 12.38 39.68 12.00C39.93 11.86 40.22 11.72 40.31 11.72C40.57 11.72 40.84 12.74 41.17 12.74C41.50 12.74 41.51 12.35 41.51 12.25C41.51 11.96 41.57 10.08 41.61 8.16C41.66 6.12 41.65 3.77 41.76 3.77L42.08 3.77C42.31 3.77 42.38 3.75 42.38 3.56C42.38 3.32 42.34 3.26 42.14 3.26C42 3.26 41.47 3.30 41.05 3.30C40.63 3.30 39.83 3.26 39.61 3.26C39.42 3.26 39.33 3.28 39.33 3.51C39.33 3.75 39.44 3.77 39.61 3.77L40.31 3.77C40.38 3.77 40.39 4.30 40.39 4.87L40.39 9.14C40.39 11.19 40.39 11.12 40.05 11.34C39.66 11.61 38.85 12.08 37.67 12.08C35.70 12.08 34.90 11.17 34.90 9.41C34.90 8.82 34.97 3.77 35.08 3.77L35.99 3.77C36.22 3.77 36.26 3.75 36.26 3.56C36.26 3.32 36.25 3.26 36.05 3.26C35.73 3.26 34.85 3.30 34.43 3.30C34.01 3.30 33.32 3.26 33.10 3.26C32.91 3.26 32.84 3.28 32.84 3.51ZM60.28 7.91C60.28 11.40 62.65 12.89 65.24 12.89C67.13 12.89 69.13 11.89 69.13 11.58C69.13 11.12 69.15 10.68 69.15 10.33C69.15 9.81 69.16 9.56 69.29 9.56L69.72 9.56C69.86 9.56 69.87 9.39 69.87 9.30C69.87 9.18 69.86 9.06 69.72 9.06C69.50 9.06 69.13 9.10 68.46 9.10C68.01 9.10 67.27 9.07 66.58 9.06C66.44 9.06 66.44 9.24 66.44 9.35C66.44 9.45 66.47 9.56 66.60 9.56L67.82 9.56C67.86 9.56 67.91 9.87 67.91 10.33C67.91 10.82 67.90 11.41 67.87 11.65C67.86 11.76 67.21 12.39 65.63 12.39C63.39 12.39 61.80 10.29 61.80 7.94C61.80 5.42 63.35 3.54 65.35 3.54C67.24 3.54 68.42 4.87 68.42 5.03C68.42 5.15 68.36 6.12 68.36 6.17C68.36 6.31 68.40 6.36 68.67 6.36C68.87 6.36 68.94 6.33 68.94 6.15C68.94 5.43 68.98 3.75 68.98 3.56C68.98 3.36 68.88 3.33 68.67 3.33C68.45 3.33 68.42 3.39 68.42 3.56L68.42 3.91C68.42 3.99 68.38 4.02 68.25 3.92C67.97 3.72 66.98 3.08 65.41 3.08C62.57 3.08 60.28 4.79 60.28 7.91ZM77.91 3.51C77.91 3.72 77.98 3.79 78.18 3.79L78.99 3.77C79.09 3.77 79.13 6.61 79.13 8.55L79.13 10.42C79.13 11.30 79.11 12.18 79.07 12.18L78.47 12.18C78.25 12.18 78.18 12.19 78.18 12.39C78.18 12.63 78.22 12.68 78.41 12.68C78.54 12.68 79.37 12.64 79.79 12.64C80.21 12.64 80.98 12.68 81.30 12.68C81.47 12.68 81.49 12.61 81.49 12.40C81.49 12.24 81.47 12.18 81.30 12.18L80.49 12.18C80.42 12.18 80.33 9.18 80.33 8.37C80.33 8.30 80.33 8.26 80.44 8.26C80.84 8.26 81.44 8.27 81.73 8.27C83.97 8.32 84.11 10.00 84.11 11.68L84.11 12.49C84.11 12.61 84.17 12.64 84.27 12.64C84.27 12.64 85.71 12.68 86.18 12.68C86.35 12.68 86.41 12.64 86.41 12.53C86.41 12.24 86.35 12.18 86.20 12.18L85.55 12.18C85.46 12.18 85.43 12.14 85.40 11.31C85.32 8.99 83.94 8.34 83.03 8.05C82.89 8.01 82.92 8.01 83.03 7.95C83.62 7.69 84.94 6.94 84.94 5.63C84.94 3.63 83.24 3.21 81.84 3.21C81.52 3.21 80.23 3.29 79.81 3.29C79.39 3.29 78.41 3.26 78.19 3.26C78.01 3.26 77.91 3.28 77.91 3.51ZM80.33 7.80L80.33 4.40C80.33 4.05 80.36 3.68 80.40 3.68C80.61 3.65 80.89 3.65 81.12 3.65C82.42 3.65 83.66 4.47 83.66 5.82C83.66 6.99 83.12 7.57 82.46 7.88C82.42 7.90 82.38 7.90 82.31 7.90C81.83 7.88 81.12 7.88 80.51 7.87C80.35 7.87 80.33 7.85 80.33 7.80ZM93.81 8.15C93.81 11.17 96.15 12.80 98.41 12.80C101.19 12.80 103.17 10.89 103.17 8.06C103.17 5.33 101.42 3.11 98.62 3.11C96.01 3.11 93.81 5.10 93.81 8.15ZM95.21 7.77C95.21 5.64 96.50 3.58 98.48 3.58C100.72 3.58 101.79 5.81 101.79 7.94C101.79 10.08 100.69 12.32 98.42 12.32C96.43 12.32 95.21 10.28 95.21 7.77ZM110.57 3.51C110.57 3.75 110.68 3.77 110.85 3.77L111.36 3.77C111.44 3.77 113.58 10.99 113.61 11.07C113.96 12.14 114.07 12.99 114.38 12.99C114.60 12.99 114.70 12.67 114.98 12.26C115.14 12.05 115.23 12.01 115.37 11.66L117.36 6.45C117.43 6.29 117.46 6.20 117.49 6.20C117.52 6.20 117.54 6.29 117.59 6.45C118.19 8.51 118.86 11.03 118.87 11.07C119.22 12.14 119.34 12.99 119.64 12.99C119.87 12.99 119.97 12.67 120.25 12.26C120.40 12.05 120.50 12.01 120.64 11.66L123.73 4.06C123.83 3.81 123.83 3.77 124.19 3.77C124.43 3.77 124.49 3.71 124.49 3.53C124.49 3.32 124.45 3.26 124.25 3.26C124.11 3.26 123.80 3.30 123.30 3.30C122.56 3.30 122.05 3.26 121.86 3.26C121.67 3.26 121.58 3.28 121.58 3.51C121.58 3.75 121.69 3.77 121.86 3.77L122.77 3.77C122.84 3.77 122.85 3.81 122.85 3.95C122.85 4.63 121.25 8.72 120.54 10.63C120.40 10.99 120.33 11.17 120.29 11.17C120.23 11.17 120.18 10.99 120.05 10.60C119.97 10.30 119.04 7.18 118.51 5.22C118.47 5.05 118.26 4.17 118.26 3.85C118.26 3.81 118.26 3.79 118.27 3.77L119.15 3.77C119.34 3.77 119.43 3.75 119.43 3.56C119.43 3.32 119.39 3.26 119.20 3.26C118.87 3.26 117.94 3.30 117.52 3.30C117.10 3.30 116.19 3.26 115.96 3.26C115.78 3.26 115.68 3.28 115.68 3.51C115.68 3.75 115.79 3.77 115.96 3.77L116.76 3.77C116.80 3.77 116.98 4.27 117.14 4.83C117.19 5.05 117.24 5.15 117.24 5.25C117.24 5.31 117.24 5.38 117.19 5.49L115.19 10.60C115.09 10.82 115.07 10.95 115.02 10.95C114.98 10.95 114.95 10.84 114.87 10.60C114.79 10.32 113.78 7.27 113.18 5.22C113.13 5.08 112.81 3.96 112.80 3.85C112.81 3.77 112.85 3.77 112.90 3.77L113.60 3.77C113.82 3.77 113.89 3.75 113.89 3.56C113.89 3.32 113.85 3.26 113.65 3.26C113.33 3.26 112.62 3.30 112.20 3.30C111.78 3.30 111.08 3.26 110.85 3.26C110.67 3.26 110.57 3.28 110.57 3.51ZM141.48 3.51C141.48 3.75 141.60 3.77 141.76 3.77L142.27 3.77C142.35 3.77 144.49 10.99 144.52 11.07C144.87 12.14 144.98 12.99 145.29 12.99C145.52 12.99 145.61 12.67 145.89 12.26C146.05 12.05 146.15 12.01 146.29 11.66L148.27 6.45C148.34 6.29 148.37 6.20 148.40 6.20C148.43 6.20 148.46 6.29 148.50 6.45C149.10 8.51 149.77 11.03 149.79 11.07C150.14 12.14 150.25 12.99 150.56 12.99C150.78 12.99 150.88 12.67 151.16 12.26C151.31 12.05 151.41 12.01 151.55 11.66L154.64 4.06C154.74 3.81 154.74 3.77 155.11 3.77C155.34 3.77 155.40 3.71 155.40 3.53C155.40 3.32 155.36 3.26 155.16 3.26C155.02 3.26 154.71 3.30 154.21 3.30C153.47 3.30 152.96 3.26 152.77 3.26C152.59 3.26 152.49 3.28 152.49 3.51C152.49 3.75 152.60 3.77 152.77 3.77L153.68 3.77C153.75 3.77 153.76 3.81 153.76 3.95C153.76 4.63 152.17 8.72 151.45 10.63C151.31 10.99 151.24 11.17 151.20 11.17C151.14 11.17 151.09 10.99 150.96 10.60C150.88 10.30 149.95 7.18 149.42 5.22C149.38 5.05 149.17 4.17 149.17 3.85C149.17 3.81 149.17 3.79 149.18 3.77L150.07 3.77C150.25 3.77 150.35 3.75 150.35 3.56C150.35 3.32 150.30 3.26 150.11 3.26C149.79 3.26 148.85 3.30 148.43 3.30C148.01 3.30 147.10 3.26 146.87 3.26C146.69 3.26 146.59 3.28 146.59 3.51C146.59 3.75 146.71 3.77 146.87 3.77L147.67 3.77C147.71 3.77 147.90 4.27 148.05 4.83C148.11 5.05 148.15 5.15 148.15 5.25C148.15 5.31 148.15 5.38 148.11 5.49L146.10 10.60C146.01 10.82 145.98 10.95 145.94 10.95C145.89 10.95 145.87 10.84 145.78 10.60C145.70 10.32 144.69 7.27 144.09 5.22C144.05 5.08 143.72 3.96 143.71 3.85C143.72 3.77 143.77 3.77 143.81 3.77L144.51 3.77C144.73 3.77 144.80 3.75 144.80 3.56C144.80 3.32 144.76 3.26 144.56 3.26C144.24 3.26 143.53 3.30 143.11 3.30C142.69 3.30 141.99 3.26 141.76 3.26C141.58 3.26 141.48 3.28 141.48 3.51ZM163.02 12.39C163.02 12.63 163.04 12.68 163.24 12.68C163.56 12.68 164.53 12.64 164.95 12.64C165.37 12.64 169.88 12.68 170.20 12.68C170.32 12.68 170.48 12.66 170.48 12.49C170.48 12.07 170.52 11.23 170.52 10.53C170.52 10.39 170.37 10.39 170.24 10.39C170.13 10.39 170.00 10.39 170.00 10.51C169.99 11.06 169.99 11.41 169.96 11.76C169.93 12.01 169.93 12.04 169.83 12.04C169.68 12.04 167.05 12.08 165.55 12.08C165.48 12.08 165.44 10.11 165.40 8.26C165.40 8.06 165.44 8.09 165.58 8.09L167.86 8.09C168.56 8.09 168.59 8.20 168.59 8.30L168.59 9.00C168.59 9.14 168.77 9.14 168.88 9.14C168.98 9.14 169.11 9.13 169.11 9.02C169.11 8.83 169.08 8.33 169.08 7.83C169.08 7.32 169.11 6.83 169.11 6.71C169.11 6.59 168.97 6.58 168.87 6.58C168.76 6.58 168.59 6.59 168.59 6.72L168.59 7.45C168.59 7.62 168.14 7.63 167.86 7.63L165.52 7.63C165.41 7.63 165.40 7.63 165.40 7.45C165.38 6.75 165.37 6.06 165.37 5.46C165.37 5.12 165.37 3.71 165.45 3.71C166.68 3.71 169.19 3.75 169.19 3.81C169.19 3.99 169.15 4.83 169.15 4.89C169.15 5.04 169.22 5.10 169.40 5.10C169.60 5.10 169.67 5.08 169.67 4.94C169.67 3.85 169.72 3.36 169.72 3.09C169.72 2.91 169.64 2.90 169.44 2.90C169.25 2.90 169.25 2.95 169.22 3.11C169.20 3.25 169.27 3.25 168.36 3.25C167.75 3.25 165.61 3.29 164.84 3.29C164.35 3.29 163.41 3.25 163.31 3.25C163.18 3.25 163.13 3.30 163.13 3.49C163.13 3.72 163.20 3.74 163.37 3.74L164.02 3.74C164.08 3.74 164.15 4.79 164.15 5.71C164.15 5.80 164.21 8.27 164.21 9.83L164.21 11.17C164.21 11.84 164.18 12.18 164.15 12.18L163.30 12.18C163.07 12.18 163.02 12.21 163.02 12.39ZM188.36 7.91C188.36 11.40 190.72 12.89 193.31 12.89C195.20 12.89 197.20 11.89 197.20 11.58C197.20 11.12 197.22 10.68 197.22 10.33C197.22 9.81 197.23 9.56 197.36 9.56L197.79 9.56C197.93 9.56 197.95 9.39 197.95 9.30C197.95 9.18 197.93 9.06 197.79 9.06C197.57 9.06 197.20 9.10 196.53 9.10C196.08 9.10 195.34 9.07 194.66 9.06C194.52 9.06 194.52 9.24 194.52 9.35C194.52 9.45 194.54 9.56 194.67 9.56L195.89 9.56C195.93 9.56 195.99 9.87 195.99 10.33C195.99 10.82 195.97 11.41 195.94 11.65C195.93 11.76 195.29 12.39 193.70 12.39C191.46 12.39 189.87 10.29 189.87 7.94C189.87 5.42 191.42 3.54 193.42 3.54C195.31 3.54 196.49 4.87 196.49 5.03C196.49 5.15 196.43 6.12 196.43 6.17C196.43 6.31 196.48 6.36 196.74 6.36C196.94 6.36 197.01 6.33 197.01 6.15C197.01 5.43 197.05 3.75 197.05 3.56C197.05 3.36 196.95 3.33 196.74 3.33C196.52 3.33 196.49 3.39 196.49 3.56L196.49 3.91C196.49 3.99 196.45 4.02 196.32 3.92C196.04 3.72 195.05 3.08 193.48 3.08C190.64 3.08 188.36 4.79 188.36 7.91ZM205.98 3.51C205.98 3.72 206.05 3.79 206.25 3.79L207.06 3.77C207.16 3.77 207.20 6.61 207.20 8.55L207.20 10.42C207.20 11.30 207.19 12.18 207.14 12.18L206.54 12.18C206.32 12.18 206.25 12.19 206.25 12.39C206.25 12.63 206.29 12.68 206.49 12.68C206.61 12.68 207.44 12.64 207.86 12.64C208.28 12.64 209.05 12.68 209.37 12.68C209.54 12.68 209.57 12.61 209.57 12.40C209.57 12.24 209.54 12.18 209.37 12.18L208.56 12.18C208.49 12.18 208.40 9.18 208.40 8.37C208.40 8.30 208.40 8.26 208.52 8.26C208.91 8.26 209.51 8.27 209.80 8.27C212.04 8.32 212.18 10.00 212.18 11.68L212.18 12.49C212.18 12.61 212.24 12.64 212.34 12.64C212.34 12.64 213.78 12.68 214.26 12.68C214.42 12.68 214.48 12.64 214.48 12.53C214.48 12.24 214.42 12.18 214.27 12.18L213.63 12.18C213.53 12.18 213.50 12.14 213.47 11.31C213.39 8.99 212.02 8.34 211.11 8.05C210.97 8.01 210.99 8.01 211.11 7.95C211.69 7.69 213.01 6.94 213.01 5.63C213.01 3.63 211.32 3.21 209.92 3.21C209.59 3.21 208.31 3.29 207.89 3.29C207.47 3.29 206.49 3.26 206.26 3.26C206.08 3.26 205.98 3.28 205.98 3.51ZM208.40 7.80L208.40 4.40C208.40 4.05 208.43 3.68 208.47 3.68C208.68 3.65 208.96 3.65 209.19 3.65C210.49 3.65 211.74 4.47 211.74 5.82C211.74 6.99 211.19 7.57 210.53 7.88C210.49 7.90 210.45 7.90 210.38 7.90C209.90 7.88 209.19 7.88 208.59 7.87C208.42 7.87 208.40 7.85 208.40 7.80ZM221.89 8.15C221.89 11.17 224.22 12.80 226.48 12.80C229.26 12.80 231.24 10.89 231.24 8.06C231.24 5.33 229.49 3.11 226.69 3.11C224.08 3.11 221.89 5.10 221.89 8.15ZM223.29 7.77C223.29 5.64 224.57 3.58 226.55 3.58C228.79 3.58 229.87 5.81 229.87 7.94C229.87 10.08 228.76 12.32 226.49 12.32C224.50 12.32 223.29 10.28 223.29 7.77ZM238.64 3.51C238.64 3.75 238.76 3.77 238.92 3.77L239.43 3.77C239.51 3.77 241.65 10.99 241.68 11.07C242.03 12.14 242.14 12.99 242.45 12.99C242.68 12.99 242.77 12.67 243.05 12.26C243.21 12.05 243.31 12.01 243.45 11.66L245.43 6.45C245.50 6.29 245.53 6.20 245.56 6.20C245.59 6.20 245.62 6.29 245.66 6.45C246.26 8.51 246.93 11.03 246.95 11.07C247.30 12.14 247.41 12.99 247.72 12.99C247.94 12.99 248.04 12.67 248.32 12.26C248.47 12.05 248.57 12.01 248.71 11.66L251.80 4.06C251.90 3.81 251.90 3.77 252.27 3.77C252.50 3.77 252.56 3.71 252.56 3.53C252.56 3.32 252.52 3.26 252.32 3.26C252.18 3.26 251.87 3.30 251.37 3.30C250.63 3.30 250.12 3.26 249.93 3.26C249.75 3.26 249.65 3.28 249.65 3.51C249.65 3.75 249.76 3.77 249.93 3.77L250.84 3.77C250.91 3.77 250.92 3.81 250.92 3.95C250.92 4.63 249.33 8.72 248.61 10.63C248.47 10.99 248.40 11.17 248.36 11.17C248.30 11.17 248.25 10.99 248.12 10.60C248.04 10.30 247.11 7.18 246.58 5.22C246.54 5.05 246.33 4.17 246.33 3.85C246.33 3.81 246.33 3.79 246.34 3.77L247.23 3.77C247.41 3.77 247.51 3.75 247.51 3.56C247.51 3.32 247.46 3.26 247.27 3.26C246.95 3.26 246.01 3.30 245.59 3.30C245.17 3.30 244.26 3.26 244.03 3.26C243.85 3.26 243.75 3.28 243.75 3.51C243.75 3.75 243.87 3.77 244.03 3.77L244.83 3.77C244.87 3.77 245.06 4.27 245.21 4.83C245.27 5.05 245.31 5.15 245.31 5.25C245.31 5.31 245.31 5.38 245.27 5.49L243.26 10.60C243.17 10.82 243.14 10.95 243.10 10.95C243.05 10.95 243.03 10.84 242.94 10.60C242.86 10.32 241.85 7.27 241.25 5.22C241.21 5.08 240.88 3.96 240.87 3.85C240.88 3.77 240.93 3.77 240.97 3.77L241.67 3.77C241.89 3.77 241.96 3.75 241.96 3.56C241.96 3.32 241.92 3.26 241.72 3.26C241.40 3.26 240.69 3.30 240.27 3.30C239.85 3.30 239.15 3.26 238.92 3.26C238.74 3.26 238.64 3.28 238.64 3.51Z"></path></g></svg>