<svg data-v-fde0c5aa="" xmlns="http://www.w3.org/2000/svg" viewBox="0 0 300 300" class="font"><!----><defs data-v-fde0c5aa=""><!----></defs><rect data-v-fde0c5aa="" fill="transparent" x="0" y="0" width="300px" height="300px" class="logo-background-square"></rect><defs data-v-fde0c5aa=""><linearGradient data-v-fde0c5aa="" gradientTransform="rotate(25)" id="3adb9374-3080-408e-a802-4e1018be8554" x1="0%" y1="0%" x2="100%" y2="0%"><stop data-v-fde0c5aa="" offset="0%" stop-color="#01648B" stop-opacity="1"></stop><stop data-v-fde0c5aa="" offset="100%" stop-color="#5BD0A4" stop-opacity="1"></stop></linearGradient></defs><g data-v-fde0c5aa="" id="9589bd8e-5f60-447e-abd1-c41e91166702" fill="url(#3adb9374-3080-408e-a802-4e1018be8554)" transform="matrix(4.460665072207765,0,0,4.460665072207765,37.63584763935054,106.7315485868836)"><path d="M7.28 4.61L7.28 4.61L6.13 6.00Q5.98 5.54 5.74 5.13Q5.50 4.72 5.17 4.42Q4.85 4.11 4.43 3.92Q4.01 3.74 3.50 3.74L3.50 3.74Q3.13 3.74 2.82 3.87Q2.50 4.01 2.27 4.24Q2.03 4.48 1.90 4.80Q1.76 5.12 1.76 5.49L1.76 5.49Q1.76 5.87 1.91 6.21Q2.05 6.54 2.29 6.81Q2.53 7.08 2.84 7.28Q3.15 7.48 3.49 7.59L3.49 7.59Q3.82 7.70 4.19 7.85Q4.56 7.99 4.92 8.18Q5.27 8.37 5.59 8.61Q5.91 8.85 6.16 9.14Q6.41 9.43 6.55 9.79Q6.69 10.15 6.69 10.58L6.69 10.58Q6.69 11.19 6.42 11.68Q6.15 12.17 5.71 12.50Q5.28 12.84 4.71 13.02Q4.15 13.19 3.57 13.19L3.57 13.19Q3.17 13.19 2.77 13.08Q2.36 12.96 1.99 12.76Q1.61 12.56 1.29 12.29Q0.96 12.02 0.72 11.72L0.72 11.72L1.83 10.45Q1.93 10.77 2.19 11.14Q2.45 11.51 2.79 11.83Q3.13 12.14 3.52 12.35Q3.92 12.56 4.29 12.56L4.29 12.56Q4.50 12.56 4.72 12.45Q4.95 12.34 5.14 12.16Q5.33 11.99 5.45 11.79Q5.57 11.58 5.57 11.38L5.57 11.38Q5.57 11.08 5.45 10.81Q5.33 10.54 5.12 10.30Q4.92 10.06 4.66 9.86Q4.40 9.66 4.11 9.50Q3.83 9.34 3.54 9.22Q3.26 9.10 3.02 9.03L3.02 9.03Q2.55 8.89 2.10 8.62Q1.65 8.35 1.31 7.98Q0.96 7.60 0.75 7.13Q0.53 6.67 0.53 6.13L0.53 6.13Q0.53 5.67 0.68 5.26Q0.82 4.85 1.07 4.50Q1.33 4.16 1.67 3.87Q2.01 3.59 2.41 3.39Q2.80 3.20 3.23 3.09Q3.66 2.99 4.10 2.99L4.10 2.99Q5.06 2.99 5.88 3.41Q6.70 3.84 7.28 4.61ZM12.46 11.48L12.67 11.70Q12.43 12.01 12.14 12.28Q11.86 12.54 11.53 12.74Q11.20 12.94 10.83 13.06Q10.46 13.17 10.06 13.17L10.06 13.17Q9.56 13.17 9.13 12.99Q8.71 12.81 8.40 12.49Q8.09 12.17 7.92 11.74Q7.75 11.31 7.75 10.81L7.75 10.81Q7.75 10.40 7.87 10.00Q7.98 9.60 8.20 9.26Q8.41 8.91 8.70 8.61Q8.99 8.31 9.34 8.10Q9.69 7.89 10.08 7.77Q10.47 7.65 10.88 7.65L10.88 7.65Q11.16 7.65 11.42 7.72Q11.68 7.79 11.87 7.93Q12.07 8.08 12.19 8.31Q12.30 8.54 12.30 8.85L12.30 8.85Q12.30 9.11 12.15 9.40Q12.00 9.69 11.75 9.97Q11.50 10.26 11.18 10.54Q10.87 10.81 10.54 11.05Q10.22 11.29 9.92 11.46Q9.62 11.64 9.39 11.74L9.39 11.74Q9.65 12.05 9.98 12.25Q10.32 12.45 10.69 12.45L10.69 12.45Q10.93 12.45 11.18 12.36Q11.42 12.26 11.65 12.12Q11.88 11.98 12.09 11.81Q12.30 11.63 12.46 11.48L12.46 11.48ZM11.02 9.11L11.02 9.11Q11.02 8.95 10.97 8.80Q10.92 8.66 10.82 8.56Q10.73 8.45 10.59 8.38Q10.46 8.32 10.29 8.32L10.29 8.32Q9.98 8.32 9.72 8.53Q9.46 8.75 9.27 9.06Q9.08 9.38 8.98 9.73Q8.87 10.08 8.87 10.35L8.87 10.35Q8.87 10.61 8.96 10.88Q9.04 11.16 9.18 11.41L9.18 11.41Q9.45 11.26 9.78 10.99Q10.10 10.73 10.37 10.41Q10.65 10.09 10.83 9.75Q11.02 9.41 11.02 9.11ZM15.94 12.03L16.13 12.24Q15.97 12.57 15.76 12.75Q15.56 12.93 15.36 13.01L15.36 13.01Q15.13 13.10 14.90 13.12L14.90 13.12Q14.59 13.12 14.39 13.02Q14.20 12.93 14.09 12.77Q13.97 12.61 13.93 12.41Q13.88 12.22 13.88 12.01L13.88 12.01L13.88 8.43L13.16 8.43L13.45 7.75L13.88 7.75L13.88 5.33L15.13 4.89L15.13 7.75L16.43 7.75L16.15 8.43L15.13 8.43L15.13 12.04Q15.13 12.21 15.21 12.30Q15.29 12.40 15.40 12.40Q15.52 12.41 15.66 12.32Q15.80 12.23 15.94 12.03L15.94 12.03ZM26.81 4.61L26.81 4.61L25.66 6.00Q25.51 5.54 25.27 5.13Q25.03 4.72 24.71 4.42Q24.38 4.11 23.96 3.92Q23.54 3.74 23.03 3.74L23.03 3.74Q22.66 3.74 22.35 3.87Q22.03 4.01 21.80 4.24Q21.56 4.48 21.43 4.80Q21.29 5.12 21.29 5.49L21.29 5.49Q21.29 5.87 21.44 6.21Q21.58 6.54 21.82 6.81Q22.06 7.08 22.37 7.28Q22.68 7.48 23.02 7.59L23.02 7.59Q23.35 7.70 23.72 7.85Q24.09 7.99 24.45 8.18Q24.80 8.37 25.12 8.61Q25.44 8.85 25.69 9.14Q25.94 9.43 26.08 9.79Q26.22 10.15 26.22 10.58L26.22 10.58Q26.22 11.19 25.95 11.68Q25.68 12.17 25.25 12.50Q24.81 12.84 24.24 13.02Q23.68 13.19 23.10 13.19L23.10 13.19Q22.70 13.19 22.30 13.08Q21.89 12.96 21.52 12.76Q21.14 12.56 20.82 12.29Q20.49 12.02 20.25 11.72L20.25 11.72L21.36 10.45Q21.46 10.77 21.72 11.14Q21.98 11.51 22.32 11.83Q22.66 12.14 23.05 12.35Q23.45 12.56 23.82 12.56L23.82 12.56Q24.03 12.56 24.25 12.45Q24.48 12.34 24.67 12.16Q24.86 11.99 24.98 11.79Q25.10 11.58 25.10 11.38L25.10 11.38Q25.10 11.08 24.98 10.81Q24.86 10.54 24.65 10.30Q24.45 10.06 24.19 9.86Q23.93 9.66 23.64 9.50Q23.36 9.34 23.07 9.22Q22.79 9.10 22.55 9.03L22.55 9.03Q22.08 8.89 21.63 8.62Q21.18 8.35 20.84 7.98Q20.49 7.60 20.28 7.13Q20.06 6.67 20.06 6.13L20.06 6.13Q20.06 5.67 20.21 5.26Q20.35 4.85 20.60 4.50Q20.86 4.16 21.20 3.87Q21.54 3.59 21.94 3.39Q22.33 3.20 22.76 3.09Q23.19 2.99 23.63 2.99L23.63 2.99Q24.59 2.99 25.41 3.41Q26.23 3.84 26.81 4.61ZM30.04 13.16L30.04 13.16Q29.80 13.16 29.59 13.09Q29.37 13.03 29.18 12.88L29.18 12.88L29.71 12.11Q29.84 12.29 30.01 12.39Q30.19 12.49 30.40 12.49L30.40 12.49Q30.62 12.49 30.78 12.38Q30.93 12.26 31.04 12.08Q31.14 11.89 31.21 11.67Q31.28 11.44 31.32 11.20Q31.35 10.97 31.36 10.76Q31.38 10.54 31.38 10.39L31.38 10.39Q31.38 10.10 31.30 9.77Q31.22 9.43 31.06 9.14Q30.90 8.85 30.65 8.65Q30.39 8.46 30.04 8.46L30.04 8.46Q29.80 8.46 29.64 8.58Q29.47 8.70 29.36 8.89Q29.24 9.08 29.18 9.33Q29.11 9.58 29.08 9.83Q29.05 10.08 29.05 10.32Q29.04 10.55 29.04 10.73L29.04 10.73L29.04 15.98L27.79 16.41L27.79 8.74Q27.79 8.60 27.73 8.49Q27.66 8.37 27.51 8.37L27.51 8.37Q27.34 8.37 27.20 8.50Q27.06 8.63 26.98 8.75L26.98 8.75L26.80 8.54Q26.88 8.37 27.01 8.21Q27.13 8.05 27.29 7.93Q27.45 7.81 27.64 7.73Q27.83 7.66 28.03 7.66L28.03 7.66Q28.33 7.66 28.52 7.75Q28.71 7.83 28.83 7.99Q28.94 8.15 28.99 8.37Q29.04 8.59 29.04 8.85L29.04 8.85Q29.15 8.64 29.30 8.43Q29.44 8.21 29.63 8.04Q29.81 7.88 30.03 7.77Q30.26 7.66 30.52 7.66L30.52 7.66Q30.99 7.66 31.36 7.87Q31.73 8.08 31.98 8.42Q32.22 8.76 32.35 9.18Q32.48 9.60 32.48 10.04L32.48 10.04Q32.48 10.58 32.33 11.14Q32.18 11.69 31.87 12.14Q31.57 12.59 31.11 12.88Q30.65 13.16 30.04 13.16ZM38.82 12.01L39.01 12.22Q38.92 12.40 38.80 12.56Q38.68 12.71 38.52 12.84Q38.36 12.96 38.17 13.03Q37.98 13.10 37.78 13.10L37.78 13.10Q37.24 13.10 37.00 12.81Q36.76 12.51 36.76 12.00L36.76 12.00L36.76 11.87Q36.64 12.11 36.49 12.34Q36.33 12.57 36.14 12.76Q35.94 12.94 35.70 13.06Q35.46 13.17 35.17 13.17L35.17 13.17Q34.73 13.17 34.38 13.00Q34.04 12.83 33.81 12.54Q33.58 12.25 33.46 11.86Q33.35 11.47 33.35 11.03L33.35 11.03Q33.35 10.44 33.55 9.85Q33.76 9.26 34.14 8.79Q34.52 8.33 35.05 8.04Q35.58 7.75 36.23 7.75L36.23 7.75Q36.49 7.75 36.75 7.79Q37.01 7.84 37.25 7.95Q37.48 8.05 37.68 8.22Q37.87 8.39 37.99 8.64L37.99 8.64L36.98 9.07Q36.89 8.94 36.79 8.82Q36.68 8.70 36.56 8.61Q36.43 8.52 36.29 8.47Q36.14 8.42 35.98 8.42L35.98 8.42Q35.63 8.42 35.35 8.63Q35.08 8.85 34.88 9.17Q34.69 9.50 34.58 9.86Q34.48 10.22 34.48 10.51L34.48 10.51Q34.48 10.77 34.53 11.10Q34.58 11.42 34.71 11.71Q34.84 12.00 35.05 12.20Q35.27 12.39 35.59 12.39L35.59 12.39Q35.84 12.39 36.03 12.28Q36.21 12.17 36.34 11.99Q36.47 11.81 36.56 11.57Q36.64 11.33 36.69 11.09Q36.73 10.84 36.75 10.60Q36.76 10.36 36.76 10.17L36.76 10.17L36.76 9.69L38.01 9.26L38.01 12.03Q38.01 12.17 38.08 12.28Q38.14 12.39 38.29 12.39L38.29 12.39Q38.46 12.39 38.60 12.27Q38.74 12.14 38.82 12.01L38.82 12.01ZM44.16 11.31L44.37 11.55Q44.13 11.86 43.84 12.15Q43.56 12.44 43.23 12.67Q42.90 12.89 42.53 13.03Q42.16 13.17 41.76 13.17L41.76 13.17Q41.25 13.17 40.83 13.00Q40.41 12.82 40.10 12.49Q39.79 12.16 39.62 11.70Q39.45 11.23 39.45 10.66L39.45 10.66Q39.45 10.06 39.69 9.52Q39.94 8.98 40.34 8.57Q40.75 8.16 41.29 7.93Q41.83 7.69 42.42 7.69L42.42 7.69Q42.66 7.69 42.89 7.73Q43.13 7.78 43.34 7.87Q43.56 7.96 43.74 8.12Q43.92 8.27 44.04 8.48L44.04 8.48L43.07 9.02Q43.00 8.85 42.87 8.73Q42.75 8.61 42.59 8.52Q42.43 8.44 42.26 8.40Q42.08 8.36 41.92 8.36L41.92 8.36Q41.59 8.36 41.33 8.51Q41.07 8.65 40.89 8.89Q40.71 9.13 40.61 9.42Q40.52 9.72 40.52 10.03L40.52 10.03Q40.52 10.62 40.66 11.07Q40.80 11.52 41.06 11.83Q41.31 12.13 41.65 12.29Q41.99 12.45 42.40 12.45L42.40 12.45Q42.63 12.45 42.88 12.33Q43.12 12.22 43.35 12.04Q43.58 11.87 43.79 11.67Q44.00 11.47 44.16 11.31L44.16 11.31ZM49.65 11.48L49.85 11.70Q49.62 12.01 49.33 12.28Q49.05 12.54 48.72 12.74Q48.38 12.94 48.02 13.06Q47.65 13.17 47.25 13.17L47.25 13.17Q46.74 13.17 46.32 12.99Q45.90 12.81 45.59 12.49Q45.28 12.17 45.11 11.74Q44.94 11.31 44.94 10.81L44.94 10.81Q44.94 10.40 45.06 10.00Q45.17 9.60 45.38 9.26Q45.60 8.91 45.89 8.61Q46.18 8.31 46.53 8.10Q46.87 7.89 47.26 7.77Q47.65 7.65 48.06 7.65L48.06 7.65Q48.35 7.65 48.61 7.72Q48.86 7.79 49.06 7.93Q49.26 8.08 49.38 8.31Q49.49 8.54 49.49 8.85L49.49 8.85Q49.49 9.11 49.34 9.40Q49.18 9.69 48.94 9.97Q48.69 10.26 48.37 10.54Q48.06 10.81 47.73 11.05Q47.41 11.29 47.11 11.46Q46.81 11.64 46.58 11.74L46.58 11.74Q46.83 12.05 47.17 12.25Q47.50 12.45 47.88 12.45L47.88 12.45Q48.12 12.45 48.36 12.36Q48.61 12.26 48.84 12.12Q49.07 11.98 49.28 11.81Q49.49 11.63 49.65 11.48L49.65 11.48ZM48.21 9.11L48.21 9.11Q48.21 8.95 48.16 8.80Q48.10 8.66 48.01 8.56Q47.91 8.45 47.78 8.38Q47.65 8.32 47.48 8.32L47.48 8.32Q47.17 8.32 46.91 8.53Q46.65 8.75 46.46 9.06Q46.27 9.38 46.17 9.73Q46.06 10.08 46.06 10.35L46.06 10.35Q46.06 10.61 46.14 10.88Q46.22 11.16 46.37 11.41L46.37 11.41Q46.64 11.26 46.96 10.99Q47.28 10.73 47.56 10.41Q47.84 10.09 48.02 9.75Q48.21 9.41 48.21 9.11Z"></path></g><!----><!----></svg>