<svg xmlns="http://www.w3.org/2000/svg" version="1.1" xmlns:xlink="http://www.w3.org/1999/xlink" xmlns:svgjs="http://svgjs.dev/svgjs" width="1500" height="1500" viewBox="0 0 1500 1500"><rect width="1500" height="1500" fill="#000000"></rect><g transform="matrix(0.6666666666666666,0,0,0.6666666666666666,249.39393939393938,435.99032258064517)"><svg viewBox="0 0 396 248" data-background-color="#ffffff" preserveAspectRatio="xMidYMid meet" height="939" width="1500" xmlns="http://www.w3.org/2000/svg" xmlns:xlink="http://www.w3.org/1999/xlink"><g id="tight-bounds" transform="matrix(1,0,0,1,0.2400000000000091,0.4000000000000057)"><svg viewBox="0 0 395.52 247.2" height="247.2" width="395.52"><g><svg></svg></g><g><svg viewBox="0 0 395.52 247.2" height="247.2" width="395.52"><g transform="matrix(1,0,0,1,75.54432,91.70638504818511)"><svg viewBox="0 0 244.43135999999998 63.78722990362976" height="63.78722990362976" width="244.43135999999998"><g><svg viewBox="0 0 311.06098495114156 81.17501191797969" height="63.78722990362976" width="244.43135999999998"><g transform="matrix(1,0,0,1,66.62962495114161,11.218833050892997)"><svg viewBox="0 0 244.43135999999998 58.737345816193695" height="58.737345816193695" width="244.43135999999998"><g id="textblocktransform"><svg viewBox="0 0 244.43135999999998 58.737345816193695" height="58.737345816193695" width="244.43135999999998" id="textblock"><g><svg viewBox="0 0 244.43135999999998 58.737345816193695" height="58.737345816193695" width="244.43135999999998"><g transform="matrix(1,0,0,1,0,0)"><svg width="244.43135999999998" viewBox="0.7 -32.35 192.03 46.150000000000006" height="58.737345816193695" data-palette-color="#064749"><path d="M9.8 0.65L9.8 0.65Q7.35 0.65 5.28-0.08 3.2-0.8 1.95-2.1 0.7-3.4 0.7-5.15L0.7-5.15Q0.7-6.3 1.25-7.18 1.8-8.05 2.75-8.05L2.75-8.05Q3.35-8.05 4-7.6L4-7.6Q5.25-6.5 7.23-5.68 9.2-4.85 11.45-4.85L11.45-4.85Q14.4-4.85 16.28-6.03 18.15-7.2 18.15-9.2L18.15-9.2Q18.15-11.1 16.4-11.95 14.65-12.8 11.55-13.55L11.55-13.55Q9.25-14.1 7.13-14.95 5-15.8 3.63-17.32 2.25-18.85 2.25-21.4L2.25-21.4Q2.25-23.35 3.1-25.28 3.95-27.2 5.6-28.8 7.25-30.4 9.6-31.38 11.95-32.35 14.9-32.35L14.9-32.35Q17.1-32.35 18.93-31.85 20.75-31.35 21.83-30.45 22.9-29.55 22.9-28.25L22.9-28.25Q22.9-27.25 22.35-26.5 21.8-25.75 21.05-25.33 20.3-24.9 19.75-24.9L19.75-24.9Q19.25-24.9 18.4-25.35L18.4-25.35Q17-26.1 15.28-26.53 13.55-26.95 12.25-26.95L12.25-26.95Q9.8-26.95 8.28-25.88 6.75-24.8 6.75-23.35L6.75-23.35Q6.75-21.75 8.68-20.68 10.6-19.6 15.6-18.4L15.6-18.4Q19-17.5 20.9-15.93 22.8-14.35 22.8-10.95L22.8-10.95Q22.8-7.9 21.18-5.25 19.55-2.6 16.63-0.98 13.7 0.65 9.8 0.65ZM34.45 0.65L34.45 0.65Q30.65 0.65 28.52-1.53 26.4-3.7 26.4-7.6L26.4-7.6Q26.4-11.15 27.95-14.05 29.5-16.95 32.12-18.68 34.75-20.4 37.9-20.4L37.9-20.4Q40.9-20.4 42.7-18.93 44.5-17.45 44.5-15L44.5-15Q44.5-13.05 43.3-11.4 42.1-9.75 40.1-8.78 38.1-7.8 35.65-7.8L35.65-7.8Q32.65-7.8 30.75-9.15L30.75-9.15Q30.8-6.85 32.32-5.45 33.85-4.05 36.25-4.05L36.25-4.05Q37.7-4.05 39.22-4.58 40.75-5.1 41.85-6L41.85-6Q42.55-6.6 43.15-6.6L43.15-6.6Q43.65-6.6 43.97-6.28 44.3-5.95 44.3-5.45L44.3-5.45Q44.3-4.35 42.4-2.55L42.4-2.55Q39.05 0.65 34.45 0.65ZM35.2-11.1L35.2-11.1Q37-11.1 38.2-11.85 39.4-12.6 39.4-13.75L39.4-13.75Q39.4-14.7 38.6-15.23 37.8-15.75 36.4-15.75L36.4-15.75Q34.55-15.75 33.17-14.78 31.8-13.8 31.2-12.05L31.2-12.05Q31.9-11.6 33-11.35 34.1-11.1 35.2-11.1ZM55.65 0.65L55.65 0.65Q52.6 0.65 51.27-1.38 49.95-3.4 49.95-6.6L49.95-6.6Q49.95-7.75 50.07-8.85 50.2-9.95 50.35-11.05L50.35-11.05Q50.5-12.15 50.65-13.2 50.8-14.25 50.9-15.2L50.9-15.2Q49.85-14.9 48.8-14.9L48.8-14.9Q47.7-14.9 47.7-15.8L47.7-15.8Q47.7-16.75 48.55-18.13 49.4-19.5 50.67-20.85 51.95-22.2 53.22-23.13 54.5-24.05 55.4-24.05L55.4-24.05Q56.5-24.05 56.5-22.15L56.5-22.15Q56.5-21.65 56.42-21.13 56.35-20.6 56.25-20.05L56.25-20.05Q57.2-20.25 58.17-20.4 59.15-20.55 60.05-20.55L60.05-20.55Q61.2-20.55 61.82-20.15 62.45-19.75 62.45-18.6L62.45-18.6Q62.45-17.4 61.87-16.2 61.3-15 60.6-15L60.6-15Q60.45-15 60.1-15.05 59.75-15.1 59.25-15.2L59.25-15.2Q58.6-15.35 57.6-15.5 56.6-15.65 55.2-15.65L55.2-15.65Q54.85-14.1 54.57-12.48 54.3-10.85 54.3-9.55L54.3-9.55Q54.3-6.65 55.75-5.6 57.2-4.55 59.95-4.55L59.95-4.55Q60.8-4.55 61.15-4.28 61.5-4 61.5-3.3L61.5-3.3Q61.5-1.65 59.8-0.5 58.1 0.65 55.65 0.65ZM87.49 0.65L87.49 0.65Q85.04 0.65 82.97-0.08 80.89-0.8 79.64-2.1 78.39-3.4 78.39-5.15L78.39-5.15Q78.39-6.3 78.94-7.18 79.49-8.05 80.44-8.05L80.44-8.05Q81.04-8.05 81.69-7.6L81.69-7.6Q82.94-6.5 84.92-5.68 86.89-4.85 89.14-4.85L89.14-4.85Q92.09-4.85 93.97-6.03 95.84-7.2 95.84-9.2L95.84-9.2Q95.84-11.1 94.09-11.95 92.34-12.8 89.24-13.55L89.24-13.55Q86.94-14.1 84.82-14.95 82.69-15.8 81.32-17.32 79.94-18.85 79.94-21.4L79.94-21.4Q79.94-23.35 80.79-25.28 81.64-27.2 83.29-28.8 84.94-30.4 87.29-31.38 89.64-32.35 92.59-32.35L92.59-32.35Q94.79-32.35 96.62-31.85 98.44-31.35 99.52-30.45 100.59-29.55 100.59-28.25L100.59-28.25Q100.59-27.25 100.04-26.5 99.49-25.75 98.74-25.33 97.99-24.9 97.44-24.9L97.44-24.9Q96.94-24.9 96.09-25.35L96.09-25.35Q94.69-26.1 92.97-26.53 91.24-26.95 89.94-26.95L89.94-26.95Q87.49-26.95 85.97-25.88 84.44-24.8 84.44-23.35L84.44-23.35Q84.44-21.75 86.37-20.68 88.29-19.6 93.29-18.4L93.29-18.4Q96.69-17.5 98.59-15.93 100.49-14.35 100.49-10.95L100.49-10.95Q100.49-7.9 98.87-5.25 97.24-2.6 94.32-0.98 91.39 0.65 87.49 0.65ZM107.24 13.8L107.24 13.8Q105.74 13.8 104.89 12.98 104.04 12.15 104.04 10L104.04 10Q104.04 8.55 104.36 6.35 104.69 4.15 105.14 1.7L105.14 1.7Q105.49-0.25 105.81-2.4 106.14-4.55 106.36-6.63 106.59-8.7 106.59-10.35L106.59-10.35Q106.59-12.25 106.16-13.65 105.74-15.05 104.44-15.45L104.44-15.45Q103.94-15.65 103.54-15.9 103.14-16.15 103.14-16.7L103.14-16.7Q103.14-17.4 103.69-18.25 104.24-19.1 105.26-19.73 106.29-20.35 107.59-20.35L107.59-20.35Q109.29-20.35 109.94-19.18 110.59-18 110.59-16.1L110.59-16.1Q110.59-15.55 110.54-14.98 110.49-14.4 110.39-13.8L110.39-13.8Q111.84-16.6 114.21-18.53 116.59-20.45 119.59-20.45L119.59-20.45Q122.59-20.45 124.31-18.43 126.04-16.4 126.04-12.95L126.04-12.95Q126.04-10.4 125.24-7.98 124.44-5.55 122.99-3.6 121.54-1.65 119.51-0.5 117.49 0.65 114.99 0.65L114.99 0.65Q113.19 0.65 111.84 0.03 110.49-0.6 109.49-1.6L109.49-1.6Q109.29-0.3 109.11 1.55 108.94 3.4 108.94 5L108.94 5Q108.94 6.85 109.36 7.9 109.79 8.95 111.04 9.5L111.04 9.5Q111.59 9.75 111.59 10.3L111.59 10.3Q111.59 10.7 111.19 11.55 110.79 12.4 109.86 13.1 108.94 13.8 107.24 13.8ZM116.14-4.75L116.14-4.75Q118.99-4.75 120.54-6.55 122.09-8.35 122.09-10.7L122.09-10.7Q122.09-12.75 120.99-13.88 119.89-15 118.04-15L118.04-15Q116.14-15 114.69-13.88 113.24-12.75 112.21-10.95 111.19-9.15 110.54-7.1L110.54-7.1Q113.04-4.75 116.14-4.75ZM136.09 0.65L136.09 0.65Q133.09 0.65 131.26-1.23 129.44-3.1 129.44-6.6L129.44-6.6Q129.44-9.1 130.41-11.58 131.39-14.05 133.24-16.05 135.09-18.05 137.69-19.25 140.29-20.45 143.54-20.45L143.54-20.45Q146.54-20.45 148.66-19.43 150.79-18.4 150.79-16.65L150.79-16.65Q150.79-16.2 150.69-15.48 150.59-14.75 150.44-14.3L150.44-14.3Q150.29-13.9 150.01-13.58 149.74-13.25 149.29-13.25L149.29-13.25Q149.09-13.25 148.54-13.4L148.54-13.4Q148.34-12.35 148.24-11.35 148.14-10.35 148.14-9.35L148.14-9.35Q148.14-7.45 148.71-5.98 149.29-4.5 150.99-4.15L150.99-4.15Q151.44-4.05 151.71-3.85 151.99-3.65 151.99-3L151.99-3Q151.99-2.45 151.71-1.6 151.44-0.75 150.66-0.08 149.89 0.6 148.44 0.6L148.44 0.6Q146.49 0.6 145.44-0.83 144.39-2.25 144.39-4.9L144.39-4.9Q143.04-2.45 140.96-0.9 138.89 0.65 136.09 0.65ZM137.69-4.55L137.69-4.55Q139.69-4.55 141.21-5.8 142.74-7.05 143.59-8.95L143.59-8.95Q144.14-10.15 144.44-11.58 144.74-13 144.84-14.4L144.84-14.4Q143.99-14.8 142.89-15.05 141.79-15.3 140.59-15.3L140.59-15.3Q137.54-15.3 135.56-13.5 133.59-11.7 133.59-9L133.59-9Q133.59-7 134.69-5.78 135.79-4.55 137.69-4.55ZM162.33 0.65L162.33 0.65Q158.83 0.65 156.86-1.48 154.88-3.6 154.88-7.4L154.88-7.4Q154.88-11.15 156.48-14.1 158.08-17.05 160.88-18.75 163.68-20.45 167.23-20.45L167.23-20.45Q169.63-20.45 171.03-19.65 172.43-18.85 172.43-17.45L172.43-17.45Q172.43-16.2 171.23-15L171.23-15Q170.78-14.55 170.06-14.18 169.33-13.8 168.93-13.8L168.93-13.8Q168.48-13.8 168.18-14.15L168.18-14.15Q167.68-14.7 166.88-15.2 166.08-15.7 164.63-15.7L164.63-15.7Q162.18-15.7 160.63-14.03 159.08-12.35 159.08-9.65L159.08-9.65Q159.08-7.2 160.48-5.7 161.88-4.2 164.18-4.2L164.18-4.2Q165.38-4.2 166.81-4.63 168.23-5.05 169.33-5.85L169.33-5.85Q169.88-6.35 170.48-6.35L170.48-6.35Q171.48-6.35 171.48-5.1L171.48-5.1Q171.48-3.45 169.83-1.95L169.83-1.95Q168.58-0.8 166.51-0.08 164.43 0.65 162.33 0.65ZM182.68 0.65L182.68 0.65Q178.88 0.65 176.75-1.53 174.63-3.7 174.63-7.6L174.63-7.6Q174.63-11.15 176.18-14.05 177.73-16.95 180.36-18.68 182.98-20.4 186.13-20.4L186.13-20.4Q189.13-20.4 190.93-18.93 192.73-17.45 192.73-15L192.73-15Q192.73-13.05 191.53-11.4 190.33-9.75 188.33-8.78 186.33-7.8 183.88-7.8L183.88-7.8Q180.88-7.8 178.98-9.15L178.98-9.15Q179.03-6.85 180.56-5.45 182.08-4.05 184.48-4.05L184.48-4.05Q185.93-4.05 187.46-4.58 188.98-5.1 190.08-6L190.08-6Q190.78-6.6 191.38-6.6L191.38-6.6Q191.88-6.6 192.21-6.28 192.53-5.95 192.53-5.45L192.53-5.45Q192.53-4.35 190.63-2.55L190.63-2.55Q187.28 0.65 182.68 0.65ZM183.43-11.1L183.43-11.1Q185.23-11.1 186.43-11.85 187.63-12.6 187.63-13.75L187.63-13.75Q187.63-14.7 186.83-15.23 186.03-15.75 184.63-15.75L184.63-15.75Q182.78-15.75 181.41-14.78 180.03-13.8 179.43-12.05L179.43-12.05Q180.13-11.6 181.23-11.35 182.33-11.1 183.43-11.1Z" opacity="1" transform="matrix(1,0,0,1,0,0)" fill="#ffffff" class="wordmark-text-0" data-fill-palette-color="primary" id="text-0"></path></svg></g></svg></g></svg></g></svg></g><g><svg viewBox="0 0 52.76314730023787 81.17501191797969" height="81.17501191797969" width="52.76314730023787"><g><svg xmlns="http://www.w3.org/2000/svg" xmlns:xlink="http://www.w3.org/1999/xlink" version="1.1" x="0" y="0" viewBox="9.971 6.663867350352167 58.28989628143103 89.67780103067567" enable-background="new 0 0 100 100" xml:space="preserve" height="81.17501191797969" width="52.76314730023787" class="icon-icon-0" data-fill-palette-color="accent" id="icon-0"><path d="M65.634 75.773C66.25 75.342 66.641 74.814 66.641 74.15 66.641 73.323 66.051 72.697 65.149 72.222L63.113 57.33C63.814 57.163 65.425 56.742 65.425 56.398V55.148S65.286 54.204 63.036 54.079C63.036 54.079 67.487 47.087 65.487 36.087S61.487 24.087 60.487 23.087 57.774 21.165 57.774 20.165C57.774 20.165 57.823 19.538 57.045 19.61A4 4 0 0 1 56.903 18.98C57.736 18.769 58.204 18.254 58.418 17.065 58.725 15.352 58.82 9.588 55.654 8.087 52.486 6.586 50.784 5.536 46.045 8.869 45.832 9.019 43.906 10.254 43.947 11.754 43.96 12.196 44.588 12.841 45.413 13.15 45.29 13.991 45.308 14.85 45.806 15.725 46.128 16.291 46.226 17.367 46.322 18.408 46.463 19.939 46.596 21.385 47.476 21.854 47.868 22.063 48.337 22.164 48.912 22.164 49.318 22.164 49.728 22.114 50.09 22.07 50.387 22.035 50.665 22 50.904 22 51.176 22 51.248 22.05 51.249 22.05 51.427 22.27 51.519 23.356 51.496 24.647 51.011 25.044 49.478 26.33 49.478 26.751 49.478 26.751 50.57 28.046 50.904 28.046 50.904 28.046 49.321 30.128 49.279 31.087S49.195 33.962 49.195 33.962 48.449 34.643 47.763 36.042L45.431 38.878C41.961 38.571 36.851 38.119 34.227 37.89A6 6 0 0 1 33.615 37.85C33.581 37.834 33.527 37.805 33.456 37.767 32.913 37.477 31.691 36.83 30.467 37.009 29.024 37.216 28.444 37.538 27.271 38.246 26.371 38.788 25.84 39.79 25.927 40.377 25.931 40.49 25.96 40.74 26.072 41.064H23.437L15.125 26.943A0.75 0.75 0 0 0 13.832 27.704L22.192 41.907H9.971V42.907H40.092C40.29 42.999 40.499 43.092 40.718 43.183V45.409H9.971V46.409H41.718V43.551C42.714 43.865 45.562 44.676 48.107 45.046 48.086 45.279 48.064 45.577 48.05 45.9 48.05 45.9 42.927 46.768 39.177 47.83S30.656 49.341 31.988 53.337C32.425 54.65 34.175 56.087 35.3 56.525L36.689 57.213S34.592 60.034 39.822 62.311C39.822 62.311 45.582 63.916 46.894 64.213 47.414 64.33 47.601 64.836 47.238 65.775 46.785 66.947 45.957 67.681 45.457 68.369S44.733 69.209 44.594 70.285C44.455 71.363 45.535 71.869 45.535 71.869S45.473 72.552 45.985 73.18A1.64 1.64 0 0 0 45.666 74.151C45.666 74.971 46.248 75.592 47.136 76.065L46.957 77.373 46.926 77.493V77.598L44.563 94.887A1.249 1.249 0 1 0 47.039 95.225L49.544 76.895C52.274 77.519 55.545 77.55 56.151 77.55 56.796 77.55 60.432 77.51 63.246 76.77L65.768 95.225A1.25 1.25 0 1 0 68.244 94.887zM50.904 21C50.629 21 50.31 21.037 49.97 21.078 49.208 21.171 48.398 21.213 47.948 20.972 47.544 20.756 47.415 19.346 47.32 18.317 47.214 17.171 47.105 15.985 46.677 15.232 46.329 14.618 46.305 13.996 46.398 13.329A2.2 2.2 0 0 0 46.926 13.255C48.774 12.755 48.869 12.357 49.672 13.272 50.692 14.432 50.499 16.254 50.499 16.254H51.779S53.586 13.779 54.3 14.769C55.307 16.158 53.738 16.754 53.738 16.754S54.127 19.117 55.506 19.117C55.648 19.117 55.774 19.111 55.903 19.106 55.94 19.367 55.995 19.599 56.048 19.783 55.666 20.009 55.283 20.342 54.907 20.725L52.673 22.086S52.655 22.161 52.428 22.709C52.347 22.075 52.194 21.555 51.927 21.314 51.613 21.033 51.193 21 50.904 21M48.572 36.633L49.627 37.317 48.68 39.165 46.639 38.984zM50.932 44.212A7 7 0 0 1 50.338 44.237C47.436 44.237 42.556 42.788 41.78 42.521 40.768 42.172 39.746 41.627 39.417 41.446A0.72 0.72 0 0 0 38.783 41.064H27.168C26.947 40.642 26.925 40.321 26.919 40.242 26.92 40.117 27.148 39.491 27.79 39.104 28.918 38.423 29.372 38.178 30.611 38.001 31.543 37.865 32.533 38.408 32.986 38.65 33.14 38.732 33.252 38.783 33.298 38.797 33.536 38.871 34.017 38.887 34.177 38.888 38.341 39.253 48.927 40.191 48.927 40.191L49.262 40.221 50.836 37.15C52.432 37.384 54.368 38.031 55.241 38.342 53.979 41.482 51.48 43.742 50.932 44.212M52.14 57.908C55.213 58.508 59.52 58.001 60.661 57.847L62.507 71.352C59.831 70.782 56.74 70.749 56.153 70.749L55.902 70.751C56.287 69.844 56.541 68.931 56.864 68.522A4 4 0 0 0 57.429 67.627C58.563 65.897 57.815 64.671 56.614 64.46 55.925 64.341 55.283 63.826 54.706 63.326 54.501 62.005 53.205 59.971 52.073 58.401zM56.152 75.549C54.599 75.549 53.263 75.456 52.128 75.315 52.728 74.797 53.768 73.741 54.579 72.785 55.079 72.764 55.6 72.75 56.152 72.75 59.124 72.75 61.356 73.081 62.795 73.464L62.976 74.781C61.548 75.186 59.263 75.549 56.152 75.549" fill="#ffffff" data-fill-palette-color="accent"></path></svg></g></svg></g></svg></g></svg></g><g><path d="M0 123.6c0-68.262 55.338-123.6 123.6-123.6 55.247 0 102.029 36.248 117.859 86.258l-2.185 0c-15.756-48.843-61.588-84.177-115.674-84.177-67.113 0-121.519 54.406-121.519 121.519 0 67.113 54.406 121.519 121.519 121.519 54.085 0 99.918-35.334 115.674-84.177l2.185 0c-15.83 50.011-62.612 86.258-117.859 86.258-68.262 0-123.6-55.338-123.6-123.6z" fill="#ffffff" stroke="transparent" data-fill-palette-color="tertiary"></path></g></svg></g><defs></defs></svg><rect width="395.52" height="247.2" fill="none" stroke="none" visibility="hidden"></rect></g></svg></g></svg>