<svg xmlns="http://www.w3.org/2000/svg" version="1.1" xmlns:xlink="http://www.w3.org/1999/xlink" xmlns:svgjs="http://svgjs.dev/svgjs" width="1500" height="515" viewBox="0 0 1500 515"><g transform="matrix(1,0,0,1,-13.302066277255108,-0.6740784475211399)"><svg viewBox="0 0 399 137" data-background-color="#ffffff" preserveAspectRatio="xMidYMid meet" height="515" width="1500" xmlns="http://www.w3.org/2000/svg" xmlns:xlink="http://www.w3.org/1999/xlink"><g id="tight-bounds" transform="matrix(1,0,0,1,3.5383496297498596,0.18020757602675985)"><svg viewBox="0 0 395.52 136.63958484794645" height="136.63958484794645" width="395.52"><g><svg viewBox="0 0 395.52 136.63958484794645" height="136.63958484794645" width="395.52"><g><svg viewBox="0 0 395.52 136.63958484794645" height="136.63958484794645" width="395.52"><g><svg viewBox="0 0 585.8669253042115 202.39839565561869" height="136.63958484794645" width="395.52"><g transform="matrix(1,0,0,1,190.34692530421142,27.97257132432935)"><svg viewBox="0 0 395.52 146.45325300695998" height="146.45325300695998" width="395.52"><g id="textblocktransform"><svg viewBox="0 0 395.52 146.45325300695998" height="146.45325300695998" width="395.52" id="textblock"><g><svg viewBox="0 0 395.52 92.42146059291395" height="92.42146059291395" width="395.52"><g transform="matrix(1,0,0,1,0,0)"><svg width="395.52" viewBox="1.55 -37.48 207.42999999999998 48.48" height="92.42146059291395" data-palette-color="#537449"><path d="M12.23 0.48L12.23 0.48Q9.7 0.48 7.13 0.08 4.55-0.33 2.33-1.07L2.33-1.07 2.33-6.58Q3.88-6.05 5.59-5.7 7.3-5.35 9-5.16 10.7-4.98 12.23-4.98L12.23-4.98Q16.25-4.98 18.03-6.33 19.8-7.68 19.8-10.15L19.8-10.15Q19.8-12.28 18.49-13.44 17.18-14.6 13.73-15.48L13.73-15.48 11.23-16.13Q6.43-17.35 3.99-19.89 1.55-22.43 1.55-26.58L1.55-26.58Q1.55-31.68 5.2-34.58 8.85-37.48 16.15-37.48L16.15-37.48Q18.53-37.48 20.74-37.19 22.95-36.9 24.7-36.38L24.7-36.38 24.7-30.88Q22.88-31.45 20.75-31.74 18.63-32.02 16.5-32.02L16.5-32.02Q13.48-32.02 11.66-31.4 9.85-30.78 9.04-29.64 8.22-28.5 8.22-26.93L8.22-26.93Q8.22-24.93 9.41-23.79 10.6-22.65 13.7-21.83L13.7-21.83 16.2-21.18Q19.73-20.3 22.01-18.89 24.3-17.48 25.4-15.44 26.5-13.4 26.5-10.6L26.5-10.6Q26.5-7.13 24.8-4.65 23.1-2.18 19.91-0.85 16.73 0.48 12.23 0.48ZM44.85 0.5L44.85 0.5Q40.02 0.5 36.86-0.96 33.7-2.43 32.15-5.55 30.6-8.68 30.6-13.65L30.6-13.65Q30.6-18.28 32.04-21.4 33.47-24.53 36.17-26.11 38.87-27.7 42.7-27.7L42.7-27.7Q46.37-27.7 48.91-26.11 51.45-24.53 52.75-21.35 54.05-18.18 54.05-13.45L54.05-13.45 54.05-11.68 34.3-11.68 34.3-15.63 49.05-15.63 47.9-15.08Q47.9-18.18 47.3-20 46.7-21.83 45.52-22.61 44.35-23.4 42.62-23.4L42.62-23.4Q40.9-23.4 39.67-22.63 38.45-21.85 37.81-20.03 37.17-18.2 37.17-15.1L37.17-15.1 37.17-12.55Q37.17-9.6 38.01-7.84 38.85-6.08 40.72-5.31 42.6-4.55 45.75-4.55L45.75-4.55Q47.32-4.55 49.05-4.8 50.77-5.05 52.6-5.5L52.6-5.5 52.6-0.48Q50.5 0.05 48.61 0.28 46.72 0.5 44.85 0.5ZM70.14 0.5L70.14 0.5Q65.47 0.5 62.93-1.85 60.39-4.2 60.39-9.33L60.39-9.33 60.39-27.28 61.57-37 66.97-37 66.97-10.35Q66.97-7.33 68.14-6.15 69.32-4.98 71.84-4.98L71.84-4.98Q72.55-4.98 73.27-5.06 74-5.15 74.87-5.33L74.87-5.33 74.87-0.05Q73.82 0.18 72.58 0.34 71.34 0.5 70.14 0.5ZM74.62-22.05L55.72-22.05 55.72-27.28 74.62-27.28 74.62-22.05ZM87.82 0.48L87.82 0.48Q85.29 0.48 82.72 0.08 80.14-0.33 77.92-1.07L77.92-1.07 77.92-6.58Q79.47-6.05 81.18-5.7 82.89-5.35 84.59-5.16 86.29-4.98 87.82-4.98L87.82-4.98Q91.84-4.98 93.62-6.33 95.39-7.68 95.39-10.15L95.39-10.15Q95.39-12.28 94.08-13.44 92.77-14.6 89.32-15.48L89.32-15.48 86.82-16.13Q82.02-17.35 79.58-19.89 77.14-22.43 77.14-26.58L77.14-26.58Q77.14-31.68 80.79-34.58 84.44-37.48 91.74-37.48L91.74-37.48Q94.12-37.48 96.33-37.19 98.54-36.9 100.29-36.38L100.29-36.38 100.29-30.88Q98.47-31.45 96.34-31.74 94.22-32.02 92.09-32.02L92.09-32.02Q89.07-32.02 87.25-31.4 85.44-30.78 84.63-29.64 83.82-28.5 83.82-26.93L83.82-26.93Q83.82-24.93 85-23.79 86.19-22.65 89.29-21.83L89.29-21.83 91.79-21.18Q95.32-20.3 97.61-18.89 99.89-17.48 100.99-15.44 102.09-13.4 102.09-10.6L102.09-10.6Q102.09-7.13 100.39-4.65 98.69-2.18 95.5-0.85 92.32 0.48 87.82 0.48ZM113.44 11L106.87 11 106.87-27.28 112.42-27.28 112.82-24.33 113.14-24.33Q114.34-25.85 116.2-26.78 118.07-27.7 120.49-27.7L120.49-27.7Q123.49-27.7 126-26.35 128.52-25 130.02-22.03 131.52-19.05 131.52-14.15L131.52-14.15Q131.52-9.35 129.88-6.09 128.24-2.83 125.02-1.16 121.79 0.5 117.04 0.5L117.04 0.5Q116.12 0.5 115.18 0.43 114.24 0.35 113.44 0.25L113.44 0.25 113.44 11ZM117.07-4.58L117.07-4.58Q120.97-4.58 122.93-6.68 124.89-8.78 124.89-13.63L124.89-13.63Q124.89-17 124.09-18.88 123.29-20.75 121.89-21.51 120.49-22.28 118.67-22.28L118.67-22.28Q117.22-22.28 115.82-21.71 114.42-21.15 113.44-19.9L113.44-19.9 113.44-4.95Q114.19-4.8 115.17-4.69 116.14-4.58 117.07-4.58ZM143.94 0.48L143.94 0.48Q139.86 0.48 137.58-1.64 135.29-3.75 135.29-7.25L135.29-7.25Q135.29-11 137.85-13.11 140.41-15.23 146.11-15.65L146.11-15.65 152.41-16.25 153.11-12.45 146.74-11.88Q144.11-11.63 142.96-10.63 141.81-9.63 141.81-7.88L141.81-7.88Q141.81-6.1 142.86-5.15 143.91-4.2 145.96-4.2L145.96-4.2Q147.31-4.2 148.69-4.73 150.06-5.25 151.19-6.48L151.19-6.48 151.19-17.2Q151.19-19.28 150.53-20.46 149.86-21.65 148.43-22.14 146.99-22.63 144.69-22.63L144.69-22.63Q143.14-22.63 141.16-22.35 139.19-22.08 137.31-21.5L137.31-21.5 137.31-26.53Q139.24-27.1 141.53-27.4 143.81-27.7 145.81-27.7L145.81-27.7Q149.84-27.7 152.45-26.69 155.06-25.68 156.34-23.29 157.61-20.9 157.61-16.8L157.61-16.8 157.61 0 152.19 0 151.71-2.83 151.39-2.83Q150.14-1.15 148.18-0.34 146.21 0.48 143.94 0.48ZM175.99 0.5L175.99 0.5Q171.66 0.5 168.66-1.01 165.66-2.53 164.11-5.65 162.56-8.78 162.56-13.6L162.56-13.6Q162.56-18.45 164.24-21.58 165.91-24.7 169.11-26.2 172.31-27.7 176.89-27.7L176.89-27.7Q178.46-27.7 179.95-27.54 181.44-27.38 182.79-27.05L182.79-27.05 182.79-21.78Q181.49-22.05 180.24-22.2 178.99-22.35 177.74-22.35L177.74-22.35Q174.86-22.35 173-21.49 171.14-20.63 170.24-18.71 169.34-16.8 169.34-13.68L169.34-13.68Q169.34-10.48 170.2-8.53 171.06-6.58 172.76-5.71 174.46-4.85 176.99-4.85L176.99-4.85Q178.29-4.85 179.66-5.09 181.04-5.33 182.79-5.83L182.79-5.83 182.79-0.55Q181.26-0.05 179.52 0.23 177.79 0.5 175.99 0.5ZM199.78 0.5L199.78 0.5Q194.96 0.5 191.8-0.96 188.63-2.43 187.08-5.55 185.53-8.68 185.53-13.65L185.53-13.65Q185.53-18.28 186.97-21.4 188.41-24.53 191.11-26.11 193.81-27.7 197.63-27.7L197.63-27.7Q201.31-27.7 203.85-26.11 206.38-24.53 207.68-21.35 208.98-18.18 208.98-13.45L208.98-13.45 208.98-11.68 189.23-11.68 189.23-15.63 203.98-15.63 202.83-15.08Q202.83-18.18 202.23-20 201.63-21.83 200.46-22.61 199.28-23.4 197.56-23.4L197.56-23.4Q195.83-23.4 194.61-22.63 193.38-21.85 192.75-20.03 192.11-18.2 192.11-15.1L192.11-15.1 192.11-12.55Q192.11-9.6 192.95-7.84 193.78-6.08 195.66-5.31 197.53-4.55 200.68-4.55L200.68-4.55Q202.26-4.55 203.98-4.8 205.71-5.05 207.53-5.5L207.53-5.5 207.53-0.48Q205.43 0.05 203.55 0.28 201.66 0.5 199.78 0.5Z" opacity="1" transform="matrix(1,0,0,1,0,0)" fill="#537449" class="wordmark-text-0" data-fill-palette-color="primary" id="text-0"></path></svg></g></svg></g><g transform="matrix(1,0,0,1,0,114.2399493238467)"><svg viewBox="0 0 395.52 32.21330368311327" height="32.21330368311327" width="395.52"><g transform="matrix(1,0,0,1,0,0)"><svg width="395.52" viewBox="-0.65 -28.65 359.71 29.299999999999997" height="32.21330368311327" data-palette-color="#193b03"><path d="M12.05-10.15L9-10.15-0.65-28.15 2.95-28.15 10.6-13.25 18.25-28.15 21.8-28.15 12.05-10.15ZM12.15 0L8.9 0 8.9-10.8 12.15-10.8 12.15 0ZM30.6 0.5L30.6 0.5Q27.35 0.5 25.17-0.85 23-2.2 21.92-4.55 20.85-6.9 20.85-9.9L20.85-9.9Q20.85-12.95 21.92-15.33 23-17.7 25.17-19.05 27.35-20.4 30.6-20.4L30.6-20.4Q35.35-20.4 37.85-17.53 40.35-14.65 40.35-9.9L40.35-9.9Q40.35-6.95 39.3-4.6 38.25-2.25 36.1-0.88 33.95 0.5 30.6 0.5ZM30.6-2.3L30.6-2.3Q33.25-2.3 34.65-3.45 36.05-4.6 36.62-6.38 37.2-8.15 37.2-10L37.2-10Q37.2-11.85 36.62-13.65 36.05-15.45 34.65-16.6 33.25-17.75 30.6-17.75L30.6-17.75Q28.05-17.75 26.57-16.6 25.1-15.45 24.55-13.65 24-11.85 24-10L24-10Q24-8.15 24.55-6.38 25.1-4.6 26.57-3.45 28.05-2.3 30.6-2.3ZM51.8 0.5L51.8 0.5Q49.84 0.5 48.47-0.1 47.09-0.7 46.22-1.73 45.34-2.75 44.89-4.08 44.45-5.4 44.27-6.88 44.09-8.35 44.09-9.85L44.09-9.85 44.09-20.35 47.3-20.35 47.3-9.8Q47.3-7.8 47.72-6.1 48.14-4.4 49.34-3.4 50.55-2.4 52.89-2.4L52.89-2.4Q55.14-2.4 56.42-3.45 57.7-4.5 58.3-6.13 58.89-7.75 59-9.55L59-9.55 59-20.35 62.3-20.35 62.3 0 59.55 0 59-4.55 58.89-4.55Q58.7-3.9 58.22-3.05 57.74-2.2 56.89-1.4 56.05-0.6 54.77-0.05 53.49 0.5 51.8 0.5ZM90.99 0.65L90.99 0.65Q86.94 0.65 83.94-1.07 80.94-2.8 79.31-6.05 77.69-9.3 77.69-13.95L77.69-13.95Q77.74-18.6 79.47-21.9 81.19-25.2 84.29-26.93 87.39-28.65 91.54-28.65L91.54-28.65Q96.89-28.65 100.11-26.18 103.34-23.7 104.24-18.95L104.24-18.95 101.14-18.6Q100.64-21.1 99.29-22.63 97.94-24.15 95.99-24.9 94.04-25.65 91.54-25.65L91.54-25.65Q86.24-25.65 83.52-22.53 80.79-19.4 80.79-14.1L80.79-14.1Q80.79-8.55 83.66-5.5 86.54-2.45 91.69-2.45L91.69-2.45Q94.34-2.45 96.41-3.38 98.49-4.3 99.81-6.15 101.14-8 101.44-10.75L101.44-10.75 93.69-10.75 93.69-13.25 104.84-13.25 104.84 0 102.54 0 101.79-6.2 101.69-6.2Q101.39-5.2 100.61-4 99.84-2.8 98.54-1.75 97.24-0.7 95.36-0.03 93.49 0.65 90.99 0.65ZM112.49 0L109.29 0 109.29-20.35 112.19-20.35 112.54-14.5 112.49-10.1 112.49 0ZM112.49-9.5L112.49-9.5 112.34-13.95Q112.44-15.1 112.94-16.25 113.44-17.4 114.36-18.32 115.29-19.25 116.74-19.8 118.19-20.35 120.14-20.35L120.14-20.35 121.09-20.35 121.09-16.8 120.09-16.8Q117.69-16.8 116.19-16.28 114.69-15.75 113.89-14.78 113.09-13.8 112.79-12.45 112.49-11.1 112.49-9.5ZM132.74 0.5L132.74 0.5Q129.49 0.5 127.31-0.85 125.14-2.2 124.06-4.55 122.99-6.9 122.99-9.9L122.99-9.9Q122.99-12.95 124.06-15.33 125.14-17.7 127.31-19.05 129.49-20.4 132.74-20.4L132.74-20.4Q137.49-20.4 139.99-17.53 142.49-14.65 142.49-9.9L142.49-9.9Q142.49-6.95 141.44-4.6 140.39-2.25 138.24-0.88 136.09 0.5 132.74 0.5ZM132.74-2.3L132.74-2.3Q135.39-2.3 136.79-3.45 138.19-4.6 138.76-6.38 139.34-8.15 139.34-10L139.34-10Q139.34-11.85 138.76-13.65 138.19-15.45 136.79-16.6 135.39-17.75 132.74-17.75L132.74-17.75Q130.19-17.75 128.71-16.6 127.24-15.45 126.69-13.65 126.14-11.85 126.14-10L126.14-10Q126.14-8.15 126.69-6.38 127.24-4.6 128.71-3.45 130.19-2.3 132.74-2.3ZM154.68 0L150.08 0 144.63-19.65 144.63-20.4 147.73-20.4 152.33-2.75 152.43-2.75 157.68-20.4 160.53-20.4 165.93-2.75 166.03-2.75 170.53-20.4 173.63-20.4 173.63-19.65 168.23 0 163.63 0 159.18-14.8 159.08-14.8 154.68 0ZM197.53-1.5L205.43-28.15 208.88-28.15 207.13-23.9 200.13 0 194.88 0 186.88-28.15 190.28-28.15 197.53-1.5ZM216.53-1.5L223.98-28.15 227.48-28.15 219.18 0 213.93 0 207.13-23.9 205.43-28.15 208.88-28.15 216.53-1.5ZM238.63 0.5L238.63 0.5Q235.28 0.5 233.1-1.03 230.93-2.55 229.9-4.98 228.88-7.4 228.88-10L228.88-10Q228.88-12.85 230-15.23 231.13-17.6 233.3-19 235.48-20.4 238.53-20.4L238.53-20.4Q241.18-20.4 243.2-19.28 245.23-18.15 246.45-16.05 247.68-13.95 247.83-11.1L247.83-11.1Q247.88-10.9 247.88-10.53 247.88-10.15 247.88-9.85L247.88-9.85 231.98-9.85Q231.98-6.3 233.7-4.28 235.43-2.25 238.58-2.25L238.58-2.25Q240.93-2.25 242.6-3.45 244.28-4.65 244.68-6.7L244.68-6.7 247.83-6.7Q247.48-4.65 246.28-3 245.08-1.35 243.13-0.43 241.18 0.5 238.63 0.5ZM232.08-11.6L232.08-11.6 244.58-11.6Q244.58-12.4 244.25-13.43 243.93-14.45 243.23-15.43 242.53-16.4 241.38-17.05 240.23-17.7 238.48-17.7L238.48-17.7Q236.93-17.7 235.78-17.18 234.63-16.65 233.85-15.78 233.08-14.9 232.65-13.8 232.23-12.7 232.08-11.6ZM276.42 0.65L276.42 0.65Q272.37 0.65 269.37-1.07 266.37-2.8 264.75-6.05 263.12-9.3 263.12-13.95L263.12-13.95Q263.17-18.6 264.9-21.9 266.62-25.2 269.72-26.93 272.82-28.65 276.97-28.65L276.97-28.65Q282.32-28.65 285.55-26.18 288.77-23.7 289.67-18.95L289.67-18.95 286.57-18.6Q286.07-21.1 284.72-22.63 283.37-24.15 281.42-24.9 279.47-25.65 276.97-25.65L276.97-25.65Q271.67-25.65 268.95-22.53 266.22-19.4 266.22-14.1L266.22-14.1Q266.22-8.55 269.1-5.5 271.97-2.45 277.12-2.45L277.12-2.45Q279.77-2.45 281.85-3.38 283.92-4.3 285.25-6.15 286.57-8 286.87-10.75L286.87-10.75 279.12-10.75 279.12-13.25 290.27-13.25 290.27 0 287.97 0 287.22-6.2 287.12-6.2Q286.82-5.2 286.05-4 285.27-2.8 283.97-1.75 282.67-0.7 280.8-0.03 278.92 0.65 276.42 0.65ZM297.92 0L294.72 0 294.72-20.35 297.62-20.35 297.97-14.5 297.92-10.1 297.92 0ZM297.92-9.5L297.92-9.5 297.77-13.95Q297.87-15.1 298.37-16.25 298.87-17.4 299.79-18.32 300.72-19.25 302.17-19.8 303.62-20.35 305.57-20.35L305.57-20.35 306.52-20.35 306.52-16.8 305.52-16.8Q303.12-16.8 301.62-16.28 300.12-15.75 299.32-14.78 298.52-13.8 298.22-12.45 297.92-11.1 297.92-9.5ZM318.17 0.5L318.17 0.5Q314.92 0.5 312.74-0.85 310.57-2.2 309.49-4.55 308.42-6.9 308.42-9.9L308.42-9.9Q308.42-12.95 309.49-15.33 310.57-17.7 312.74-19.05 314.92-20.4 318.17-20.4L318.17-20.4Q322.92-20.4 325.42-17.53 327.92-14.65 327.92-9.9L327.92-9.9Q327.92-6.95 326.87-4.6 325.82-2.25 323.67-0.88 321.52 0.5 318.17 0.5ZM318.17-2.3L318.17-2.3Q320.82-2.3 322.22-3.45 323.62-4.6 324.19-6.38 324.77-8.15 324.77-10L324.77-10Q324.77-11.85 324.19-13.65 323.62-15.45 322.22-16.6 320.82-17.75 318.17-17.75L318.17-17.75Q315.62-17.75 314.14-16.6 312.67-15.45 312.12-13.65 311.57-11.85 311.57-10L311.57-10Q311.57-8.15 312.12-6.38 312.67-4.6 314.14-3.45 315.62-2.3 318.17-2.3ZM340.11 0L335.51 0 330.06-19.65 330.06-20.4 333.16-20.4 337.76-2.75 337.86-2.75 343.11-20.4 345.96-20.4 351.36-2.75 351.46-2.75 355.96-20.4 359.06-20.4 359.06-19.65 353.66 0 349.06 0 344.61-14.8 344.51-14.8 340.11 0Z" opacity="1" transform="matrix(1,0,0,1,0,0)" fill="#193b03" class="slogan-text-1" data-fill-palette-color="secondary" id="text-1"></path></svg></g></svg></g></svg></g></svg></g><g><svg viewBox="0 0 168.52843657327867 202.39839565561869" height="202.39839565561869" width="168.52843657327867"><g><svg xmlns="http://www.w3.org/2000/svg" xmlns:xlink="http://www.w3.org/1999/xlink" version="1.1" x="0" y="0" viewBox="12.657 5.151999999999999 74.6860003406216 89.696" enable-background="new 0 0 100 100" xml:space="preserve" height="202.39839565561869" width="168.52843657327867" class="icon-icon-0" data-fill-palette-color="accent" id="icon-0"><g fill="#537449" data-fill-palette-color="accent"><path fill="#537449" d="M85.844 47.557H67.774A54 54 0 0 0 67.432 45.911H77.618C82.438 45.911 82.438 39.528 77.618 39.528H69.08L60.053 25.53C58.035 22.426 54.612 22.234 54.612 22.234H53.176C52.551 22.522 51.891 22.748 51.205 22.904 51.17 22.912 51.133 22.918 51.098 22.925 50.82 22.985 50.537 23.031 50.252 23.068 50.17 23.078 50.088 23.089 50.006 23.097 49.68 23.13 49.35 23.152 49.016 23.152S48.356 23.13 48.032 23.097C47.935 23.087 47.84 23.074 47.744 23.061A10 10 0 0 1 47.024 22.94C46.94 22.923 46.854 22.908 46.77 22.888A10 10 0 0 1 44.854 22.233H43.665S40.241 22.398 38.224 25.502L35.214 30.168H28.988V16.806H39.71A9.9 9.9 0 0 1 39.036 13.806H25.986V33.168H33.278L29.194 39.501H25.657C20.837 39.501 20.837 45.884 25.657 45.884H30.422C30.296 46.444 30.18 47.002 30.074 47.557H14.157A1.5 1.5 0 1 0 14.157 50.557H29.606C29.412 52.108 29.297 53.613 29.297 55.011 29.297 60.755 30.009 67.907 35.559 72.275L35.967 72.596H47.5V84.387H38.234L37.789 86.812C35.674 86.931 33.984 88.674 33.984 90.819A4.033 4.033 0 0 0 38.013 94.848 4.034 4.034 0 0 0 42.042 90.819 4 4 0 0 0 40.657 87.803L40.733 87.387H46.833A4.02 4.02 0 0 0 44.888 90.819 4.033 4.033 0 0 0 48.917 94.848 4.035 4.035 0 0 0 52.947 90.819 4.02 4.02 0 0 0 51 87.387H57.293L57.344 87.663C56.405 88.401 55.789 89.534 55.789 90.818A4.033 4.033 0 0 0 59.818 94.847 4.034 4.034 0 0 0 63.847 90.818C63.847 88.741 62.261 87.047 60.24 86.832L59.793 84.387H50.5V72.596H61.524L61.924 72.294C67.795 67.87 68.549 60.733 68.549 55.011 68.549 53.613 68.434 52.108 68.24 50.557H85.842A1.5 1.5 0 0 0 85.844 47.557M38.015 91.848A1.03 1.03 0 0 1 38.015 89.79C38.581 89.79 39.044 90.252 39.044 90.819S38.582 91.848 38.015 91.848M59.82 89.789C60.386 89.789 60.849 90.251 60.849 90.818S60.386 91.847 59.82 91.847A1.03 1.03 0 0 1 59.82 89.789M48.919 91.848A1.03 1.03 0 0 1 48.919 89.79C49.485 89.79 49.948 90.252 49.948 90.819S49.486 91.848 48.919 91.848M60.506 69.596H37.023C33.716 66.759 32.298 62.355 32.298 55.011 32.298 49.273 34.16 41.749 37.041 35.844 38.982 31.868 43.105 25.198 48.926 25.198 54.745 25.198 58.868 31.868 60.807 35.844 63.69 41.749 65.551 49.272 65.551 55.011 65.551 62.317 64.037 66.72 60.506 69.596" data-fill-palette-color="accent"></path><circle fill="#537449" cx="49.015" cy="13.152" r="8.0" data-fill-palette-color="accent"></circle><g fill="#537449" data-fill-palette-color="accent"><path fill="#537449" d="M39.931 65.319A1.5 1.5 0 0 1 38.431 63.819V39.896A1.5 1.5 0 1 1 41.431 39.896V63.819A1.5 1.5 0 0 1 39.931 65.319" data-fill-palette-color="accent"></path><path fill="#537449" d="M49.015 65.319A1.5 1.5 0 0 1 47.515 63.819V39.896A1.5 1.5 0 1 1 50.515 39.896V63.819A1.5 1.5 0 0 1 49.015 65.319" data-fill-palette-color="accent"></path><path fill="#537449" d="M58.098 65.319A1.5 1.5 0 0 1 56.598 63.819V39.896A1.5 1.5 0 1 1 59.598 39.896V63.819A1.5 1.5 0 0 1 58.098 65.319" data-fill-palette-color="accent"></path></g><path fill="#537449" d="M53.494 33.19H44.73A1.5 1.5 0 1 1 44.73 30.19H53.494A1.5 1.5 0 1 1 53.494 33.19" data-fill-palette-color="accent"></path></g></svg></g></svg></g></svg></g></svg></g></svg></g><defs></defs></svg><rect width="395.52" height="136.63958484794645" fill="none" stroke="none" visibility="hidden"></rect></g></svg></g></svg>