<svg xmlns="http://www.w3.org/2000/svg" version="1.1" xmlns:xlink="http://www.w3.org/1999/xlink" xmlns:svgjs="http://svgjs.dev/svgjs" width="1500" height="935" viewBox="0 0 1500 935"><g transform="matrix(1,0,0,1,-0.9090909090909918,0.3785425101214628)"><svg viewBox="0 0 396 247" data-background-color="#ffffff" preserveAspectRatio="xMidYMid meet" height="935" width="1500" xmlns="http://www.w3.org/2000/svg" xmlns:xlink="http://www.w3.org/1999/xlink"><g id="tight-bounds" transform="matrix(1,0,0,1,0.2400000000000091,-0.09999999999999432)"><svg viewBox="0 0 395.52 247.2" height="247.2" width="395.52"><g><svg></svg></g><g><svg viewBox="0 0 395.52 247.2" height="247.2" width="395.52"><g transform="matrix(1,0,0,1,75.54432,83.91183868135155)"><svg viewBox="0 0 244.43135999999998 79.37632263729687" height="79.37632263729687" width="244.43135999999998"><g><svg viewBox="0 0 404.5624744875802 131.3770929469498" height="79.37632263729687" width="244.43135999999998"><g transform="matrix(1,0,0,1,160.1311144875802,18.15703672421666)"><svg viewBox="0 0 244.43135999999998 95.06301949851648" height="95.06301949851648" width="244.43135999999998"><g id="textblocktransform"><svg viewBox="0 0 244.43135999999998 95.06301949851648" height="95.06301949851648" width="244.43135999999998" id="textblock"><g><svg viewBox="0 0 244.43135999999998 60.576739141104284" height="60.576739141104284" width="244.43135999999998"><g transform="matrix(1,0,0,1,0,0)"><svg width="244.43135999999998" viewBox="1.85 -37.48 195.58 48.48" height="60.576739141104284" data-palette-color="#7bb56a"><path d="M11.55 0.48L11.55 0.48Q9.35 0.48 6.96 0.1 4.58-0.28 2.43-1.03L2.43-1.03 2.43-4.53Q3.98-4 5.56-3.66 7.15-3.33 8.68-3.15 10.2-2.98 11.6-2.98L11.6-2.98Q16.2-2.98 18.4-4.71 20.6-6.45 20.6-9.78L20.6-9.78Q20.6-12.6 18.94-14.09 17.28-15.58 13.28-16.63L13.28-16.63 11.28-17.15Q6.55-18.35 4.2-20.79 1.85-23.23 1.85-27.23L1.85-27.23Q1.85-32 5.16-34.74 8.47-37.48 15.03-37.48L15.03-37.48Q17.18-37.48 19.28-37.19 21.38-36.9 23.1-36.35L23.1-36.35 23.1-32.85Q21.2-33.45 19.19-33.74 17.18-34.02 15.13-34.02L15.13-34.02Q11.95-34.02 9.93-33.25 7.9-32.48 6.93-31 5.95-29.53 5.95-27.45L5.95-27.45Q5.95-24.73 7.48-23.23 9-21.73 12.75-20.73L12.75-20.73 14.78-20.23Q18.18-19.35 20.38-17.99 22.58-16.63 23.65-14.66 24.73-12.7 24.73-10.03L24.73-10.03Q24.73-6.68 23.18-4.34 21.63-2 18.68-0.76 15.73 0.48 11.55 0.48ZM42.4 0.48L42.4 0.48Q38.17 0.48 35.31-0.96 32.45-2.4 31-5.49 29.55-8.58 29.55-13.58L29.55-13.58Q29.55-18.35 30.89-21.45 32.22-24.55 34.69-26.05 37.15-27.55 40.52-27.55L40.52-27.55Q43.85-27.55 46.19-26.04 48.52-24.53 49.75-21.41 50.97-18.3 50.97-13.48L50.97-13.48 50.97-12.25 31.72-12.25 31.72-14.98 48.02-14.98 47.15-14.38Q47.15-18.18 46.36-20.43 45.57-22.68 44.09-23.66 42.6-24.65 40.47-24.65L40.47-24.65Q38.37-24.65 36.82-23.68 35.27-22.7 34.44-20.45 33.6-18.2 33.6-14.38L33.6-14.38 33.6-12.98Q33.6-9.22 34.61-6.99 35.62-4.75 37.67-3.76 39.72-2.78 42.87-2.78L42.87-2.78Q44.42-2.78 46.09-3.06 47.75-3.35 49.62-3.88L49.62-3.88 49.62-0.6Q47.67-0.05 45.91 0.21 44.15 0.48 42.4 0.48ZM66.92 0.48L66.92 0.48Q62.77 0.48 60.47-1.66 58.17-3.8 58.17-8.5L58.17-8.5 58.17-27.13 58.82-37 62.17-37 62.17-9.15Q62.17-5.73 63.58-4.35 65-2.98 67.8-2.98L67.8-2.98Q68.55-2.98 69.35-3.09 70.15-3.2 71.1-3.4L71.1-3.4 71.1-0.03Q70.1 0.23 69.05 0.35 68 0.48 66.92 0.48ZM70.7-23.83L53.07-23.83 53.07-27.13 70.7-27.13 70.7-23.83ZM83.07 0.48L83.07 0.48Q80.87 0.48 78.48 0.1 76.09-0.28 73.94-1.03L73.94-1.03 73.94-4.53Q75.49-4 77.08-3.66 78.67-3.33 80.19-3.15 81.72-2.98 83.12-2.98L83.12-2.98Q87.72-2.98 89.92-4.71 92.12-6.45 92.12-9.78L92.12-9.78Q92.12-12.6 90.46-14.09 88.79-15.58 84.79-16.63L84.79-16.63 82.79-17.15Q78.07-18.35 75.72-20.79 73.37-23.23 73.37-27.23L73.37-27.23Q73.37-32 76.68-34.74 79.99-37.48 86.54-37.48L86.54-37.48Q88.69-37.48 90.79-37.19 92.89-36.9 94.62-36.35L94.62-36.35 94.62-32.85Q92.72-33.45 90.71-33.74 88.69-34.02 86.64-34.02L86.64-34.02Q83.47-34.02 81.44-33.25 79.42-32.48 78.44-31 77.47-29.53 77.47-27.45L77.47-27.45Q77.47-24.73 78.99-23.23 80.52-21.73 84.27-20.73L84.27-20.73 86.29-20.23Q89.69-19.35 91.89-17.99 94.09-16.63 95.17-14.66 96.24-12.7 96.24-10.03L96.24-10.03Q96.24-6.68 94.69-4.34 93.14-2 90.19-0.76 87.24 0.48 83.07 0.48ZM105.87 11L101.87 11 101.87-27.13 105.27-27.13 105.57-24.15 105.82-24.15Q107.04-25.65 108.95-26.6 110.87-27.55 113.29-27.55L113.29-27.55Q116.22-27.55 118.64-26.25 121.07-24.95 122.52-21.99 123.97-19.03 123.97-14.08L123.97-14.08Q123.97-9.18 122.42-5.95 120.87-2.73 117.82-1.13 114.77 0.48 110.29 0.48L110.29 0.48Q109.14 0.48 107.99 0.36 106.84 0.25 105.87 0.13L105.87 0.13 105.87 11ZM110.34-2.8L110.34-2.8Q115.09-2.8 117.49-5.35 119.89-7.9 119.89-13.73L119.89-13.73Q119.89-17.78 118.92-20.03 117.94-22.28 116.24-23.19 114.54-24.1 112.39-24.1L112.39-24.1Q110.57-24.1 108.82-23.31 107.07-22.53 105.87-20.75L105.87-20.75 105.87-3.28Q106.77-3.08 107.98-2.94 109.19-2.8 110.34-2.8ZM136.81 0.45L136.81 0.45Q132.99 0.45 130.8-1.53 128.61-3.5 128.61-6.95L128.61-6.95Q128.61-10.5 130.95-12.49 133.29-14.48 138.46-14.98L138.46-14.98 145.74-15.75 146.11-13.1 138.71-12.3Q135.49-11.98 134.08-10.74 132.66-9.5 132.66-7.33L132.66-7.33Q132.66-5.05 133.96-3.85 135.26-2.65 137.84-2.65L137.84-2.65Q139.61-2.65 141.41-3.41 143.21-4.17 144.64-5.98L144.64-5.98 144.64-17.95Q144.64-20.45 143.86-21.81 143.09-23.18 141.54-23.73 139.99-24.28 137.64-24.28L137.64-24.28Q136.11-24.28 134.18-24 132.24-23.73 130.31-23.08L130.31-23.08 130.31-26.35Q132.06-26.93 134.18-27.24 136.29-27.55 138.16-27.55L138.16-27.55Q141.61-27.55 143.93-26.65 146.24-25.75 147.4-23.61 148.56-21.48 148.56-17.78L148.56-17.78 148.56 0 145.21 0 144.91-3.03 144.66-3.03Q143.34-1.35 141.28-0.45 139.21 0.45 136.81 0.45ZM166.41 0.48L166.41 0.48Q162.56 0.48 159.89-0.99 157.21-2.45 155.81-5.54 154.41-8.63 154.41-13.55L154.41-13.55Q154.41-18.48 155.92-21.56 157.44-24.65 160.34-26.1 163.24-27.55 167.44-27.55L167.44-27.55Q168.86-27.55 170.29-27.38 171.71-27.2 173.01-26.85L173.01-26.85 173.01-23.45Q171.69-23.8 170.4-23.98 169.11-24.15 167.86-24.15L167.86-24.15Q164.74-24.15 162.66-23.13 160.59-22.1 159.57-19.8 158.56-17.5 158.56-13.65L158.56-13.65Q158.56-9.7 159.51-7.35 160.46-5 162.35-3.96 164.24-2.93 166.99-2.93L166.99-2.93Q168.31-2.93 169.76-3.19 171.21-3.45 173.01-4.03L173.01-4.03 173.01-0.65Q171.41-0.08 169.75 0.2 168.09 0.48 166.41 0.48ZM188.86 0.48L188.86 0.48Q184.63 0.48 181.77-0.96 178.91-2.4 177.46-5.49 176.01-8.58 176.01-13.58L176.01-13.58Q176.01-18.35 177.35-21.45 178.68-24.55 181.15-26.05 183.61-27.55 186.98-27.55L186.98-27.55Q190.31-27.55 192.65-26.04 194.98-24.53 196.21-21.41 197.43-18.3 197.43-13.48L197.43-13.48 197.43-12.25 178.18-12.25 178.18-14.98 194.48-14.98 193.61-14.38Q193.61-18.18 192.82-20.43 192.03-22.68 190.55-23.66 189.06-24.65 186.93-24.65L186.93-24.65Q184.83-24.65 183.28-23.68 181.73-22.7 180.9-20.45 180.06-18.2 180.06-14.38L180.06-14.38 180.06-12.98Q180.06-9.22 181.07-6.99 182.08-4.75 184.13-3.76 186.18-2.78 189.33-2.78L189.33-2.78Q190.88-2.78 192.55-3.06 194.21-3.35 196.08-3.88L196.08-3.88 196.08-0.6Q194.13-0.05 192.37 0.21 190.61 0.48 188.86 0.48Z" opacity="1" transform="matrix(1,0,0,1,0,0)" fill="#7bb56a" class="wordmark-text-0" data-fill-palette-color="primary" id="text-0"></path></svg></g></svg></g><g transform="matrix(1,0,0,1,0,74.87745341057962)"><svg viewBox="0 0 244.43135999999998 20.185566087936863" height="20.185566087936863" width="244.43135999999998"><g transform="matrix(1,0,0,1,0,0)"><svg width="244.43135999999998" viewBox="-0.45 -28.65 354.76 29.299999999999997" height="20.185566087936863" data-palette-color="#193b03"><path d="M11.25-10.25L9.2-10.25-0.45-28.15 2.05-28.15 10.35-12.65 18.5-28.15 21-28.15 11.25-10.25ZM11.4 0L9.1 0 9.1-10.9 11.4-10.9 11.4 0ZM29.75 0.5L29.75 0.5Q26.6 0.5 24.47-0.83 22.35-2.15 21.3-4.5 20.25-6.85 20.25-9.85L20.25-9.85Q20.25-12.9 21.3-15.28 22.35-17.65 24.47-18.98 26.6-20.3 29.75-20.3L29.75-20.3Q34.35-20.3 36.77-17.43 39.2-14.55 39.2-9.85L39.2-9.85Q39.2-6.95 38.2-4.58 37.2-2.2 35.1-0.85 33 0.5 29.75 0.5ZM29.75-1.55L29.75-1.55Q32.55-1.55 34.1-2.8 35.65-4.05 36.27-5.98 36.9-7.9 36.9-9.9L36.9-9.9Q36.9-11.95 36.27-13.88 35.65-15.8 34.1-17.05 32.55-18.3 29.75-18.3L29.75-18.3Q27-18.3 25.4-17.05 23.8-15.8 23.17-13.88 22.55-11.95 22.55-9.9L22.55-9.9Q22.55-7.9 23.17-5.98 23.8-4.05 25.4-2.8 27-1.55 29.75-1.55ZM51.05 0.5L51.05 0.5Q49.14 0.5 47.77-0.05 46.39-0.6 45.49-1.58 44.59-2.55 44.09-3.83 43.59-5.1 43.39-6.6 43.2-8.1 43.2-9.7L43.2-9.7 43.2-20.3 45.45-20.3 45.45-9.7Q45.45-7.45 45.92-5.6 46.39-3.75 47.74-2.68 49.09-1.6 51.59-1.6L51.59-1.6Q53.99-1.6 55.42-2.73 56.84-3.85 57.55-5.63 58.25-7.4 58.34-9.4L58.34-9.4 58.34-20.3 60.7-20.3 60.7 0 58.8 0 58.39-4.85 58.3-4.85Q58.05-4.05 57.5-3.15 56.95-2.25 56.07-1.4 55.2-0.55 53.95-0.03 52.7 0.5 51.05 0.5ZM90.09 0.65L90.09 0.65Q86.04 0.65 83.09-1.07 80.14-2.8 78.52-6.08 76.89-9.35 76.94-13.95L76.94-13.95Q76.94-18.6 78.59-21.9 80.24-25.2 83.32-26.93 86.39-28.65 90.54-28.65L90.54-28.65Q95.69-28.65 98.94-26.2 102.19-23.75 103.04-18.95L103.04-18.95 100.84-18.8Q100.29-21.45 98.89-23.15 97.49-24.85 95.39-25.68 93.29-26.5 90.54-26.5L90.54-26.5Q84.94-26.5 82.02-23.18 79.09-19.85 79.09-14.05L79.09-14.05Q79.09-8.1 82.12-4.78 85.14-1.45 90.49-1.45L90.49-1.45Q93.44-1.45 95.72-2.58 97.99-3.7 99.37-5.83 100.74-7.95 100.99-11L100.99-11 92.39-11 92.39-12.9 103.59-12.9 103.59 0 101.89 0 101.34-6.85 101.24-6.85Q100.99-5.8 100.22-4.5 99.44-3.2 98.12-2.02 96.79-0.85 94.82-0.1 92.84 0.65 90.09 0.65ZM110.54 0L108.29 0 108.29-20.3 110.24-20.3 110.59-14.45 110.54-10.1 110.54 0ZM110.54-9.8L110.54-9.8 110.39-14.2Q110.49-15.4 111.01-16.5 111.54-17.6 112.51-18.45 113.49-19.3 114.86-19.8 116.24-20.3 118.09-20.3L118.09-20.3 119.19-20.3 119.19-17.75 118.09-17.75Q115.54-17.75 114.01-17.13 112.49-16.5 111.74-15.43 110.99-14.35 110.76-12.9 110.54-11.45 110.54-9.8ZM130.39 0.5L130.39 0.5Q127.24 0.5 125.11-0.83 122.99-2.15 121.94-4.5 120.89-6.85 120.89-9.85L120.89-9.85Q120.89-12.9 121.94-15.28 122.99-17.65 125.11-18.98 127.24-20.3 130.39-20.3L130.39-20.3Q134.99-20.3 137.41-17.43 139.84-14.55 139.84-9.85L139.84-9.85Q139.84-6.95 138.84-4.58 137.84-2.2 135.74-0.85 133.64 0.5 130.39 0.5ZM130.39-1.55L130.39-1.55Q133.19-1.55 134.74-2.8 136.29-4.05 136.91-5.98 137.54-7.9 137.54-9.9L137.54-9.9Q137.54-11.95 136.91-13.88 136.29-15.8 134.74-17.05 133.19-18.3 130.39-18.3L130.39-18.3Q127.64-18.3 126.04-17.05 124.44-15.8 123.81-13.88 123.19-11.95 123.19-9.9L123.19-9.9Q123.19-7.9 123.81-5.98 124.44-4.05 126.04-2.8 127.64-1.55 130.39-1.55ZM151.13 0L147.88 0 142.08-19.65 142.08-20.3 144.23-20.3 149.43-1.95 149.53-1.95 155.18-20.3 157.28-20.3 163.03-1.95 163.13-1.95 168.23-20.3 170.38-20.3 170.38-19.65 164.68 0 161.38 0 156.28-16.3 156.18-16.3 151.13 0ZM194.38-1.15L203.13-28.15 205.58-28.15 204.33-25 196.23 0 192.43 0 183.78-28.15 186.23-28.15 194.38-1.15ZM214.03-1.15L222.53-28.15 225.03-28.15 215.93 0 212.18 0 204.33-25 203.18-28.15 205.58-28.15 214.03-1.15ZM235.93 0.5L235.93 0.5Q232.68 0.5 230.55-1.05 228.43-2.6 227.38-5.03 226.33-7.45 226.38-10.05L226.38-10.05Q226.38-12.75 227.48-15.1 228.58-17.45 230.7-18.88 232.83-20.3 235.88-20.3L235.88-20.3Q238.43-20.3 240.4-19.18 242.38-18.05 243.58-16.03 244.78-14 244.93-11.2L244.93-11.2Q244.98-10.95 244.98-10.6 244.98-10.25 244.98-9.95L244.98-9.95 228.58-9.95Q228.58-6.1 230.5-3.8 232.43-1.5 235.93-1.5L235.93-1.5Q238.48-1.5 240.35-2.85 242.23-4.2 242.68-6.5L242.68-6.5 244.93-6.5Q244.58-4.45 243.33-2.88 242.08-1.3 240.18-0.4 238.28 0.5 235.93 0.5ZM228.73-11.45L228.73-11.45 242.63-11.45Q242.58-12.4 242.2-13.58 241.83-14.75 241.03-15.85 240.23-16.95 238.95-17.65 237.68-18.35 235.88-18.35L235.88-18.35Q234.23-18.35 232.98-17.78 231.73-17.2 230.85-16.25 229.98-15.3 229.45-14.08 228.93-12.85 228.73-11.45ZM274.02 0.65L274.02 0.65Q269.97 0.65 267.02-1.07 264.07-2.8 262.45-6.08 260.82-9.35 260.87-13.95L260.87-13.95Q260.87-18.6 262.52-21.9 264.17-25.2 267.25-26.93 270.32-28.65 274.47-28.65L274.47-28.65Q279.62-28.65 282.87-26.2 286.12-23.75 286.97-18.95L286.97-18.95 284.77-18.8Q284.22-21.45 282.82-23.15 281.42-24.85 279.32-25.68 277.22-26.5 274.47-26.5L274.47-26.5Q268.87-26.5 265.95-23.18 263.02-19.85 263.02-14.05L263.02-14.05Q263.02-8.1 266.05-4.78 269.07-1.45 274.42-1.45L274.42-1.45Q277.37-1.45 279.65-2.58 281.92-3.7 283.3-5.83 284.67-7.95 284.92-11L284.92-11 276.32-11 276.32-12.9 287.52-12.9 287.52 0 285.82 0 285.27-6.85 285.17-6.85Q284.92-5.8 284.15-4.5 283.37-3.2 282.05-2.02 280.72-0.85 278.75-0.1 276.77 0.65 274.02 0.65ZM294.47 0L292.22 0 292.22-20.3 294.17-20.3 294.52-14.45 294.47-10.1 294.47 0ZM294.47-9.8L294.47-9.8 294.32-14.2Q294.42-15.4 294.94-16.5 295.47-17.6 296.44-18.45 297.42-19.3 298.79-19.8 300.17-20.3 302.02-20.3L302.02-20.3 303.12-20.3 303.12-17.75 302.02-17.75Q299.47-17.75 297.94-17.13 296.42-16.5 295.67-15.43 294.92-14.35 294.69-12.9 294.47-11.45 294.47-9.8ZM314.31 0.5L314.31 0.5Q311.17 0.5 309.04-0.83 306.92-2.15 305.87-4.5 304.81-6.85 304.81-9.85L304.81-9.85Q304.81-12.9 305.87-15.28 306.92-17.65 309.04-18.98 311.17-20.3 314.31-20.3L314.31-20.3Q318.92-20.3 321.34-17.43 323.77-14.55 323.77-9.85L323.77-9.85Q323.77-6.95 322.77-4.58 321.77-2.2 319.67-0.85 317.56 0.5 314.31 0.5ZM314.31-1.55L314.31-1.55Q317.12-1.55 318.67-2.8 320.22-4.05 320.84-5.98 321.47-7.9 321.47-9.9L321.47-9.9Q321.47-11.95 320.84-13.88 320.22-15.8 318.67-17.05 317.12-18.3 314.31-18.3L314.31-18.3Q311.56-18.3 309.97-17.05 308.37-15.8 307.74-13.88 307.12-11.95 307.12-9.9L307.12-9.9Q307.12-7.9 307.74-5.98 308.37-4.05 309.97-2.8 311.56-1.55 314.31-1.55ZM335.06 0L331.81 0 326.01-19.65 326.01-20.3 328.16-20.3 333.36-1.95 333.46-1.95 339.11-20.3 341.21-20.3 346.96-1.95 347.06-1.95 352.16-20.3 354.31-20.3 354.31-19.65 348.61 0 345.31 0 340.21-16.3 340.11-16.3 335.06 0Z" opacity="1" transform="matrix(1,0,0,1,0,0)" fill="#193b03" class="slogan-text-1" data-fill-palette-color="secondary" id="text-1"></path></svg></g></svg></g></svg></g></svg></g><g><svg viewBox="0 0 145.83040021810484 131.3770929469498" height="131.3770929469498" width="145.83040021810484"><g><svg xmlns="http://www.w3.org/2000/svg" xmlns:xlink="http://www.w3.org/1999/xlink" version="1.2" baseProfile="tiny" x="0" y="0" viewBox="9.15607640845375 10.660546804944772 38.35592359154625 34.55445319505523" xml:space="preserve" height="131.3770929469498" width="145.83040021810484" class="icon-icon-0" data-fill-palette-color="accent" id="icon-0"><path fill="#7bb56a" d="M12.549 18.432A1.754 1.754 0 1 0 9.326 19.81L12.314 26.8A10.2 10.2 0 0 1 12.986 32.585L11.142 43.153A1.753 1.753 0 1 0 14.597 43.753L16.441 33.187A13.7 13.7 0 0 0 15.539 25.421zM28.195 33.635A1.32 1.32 0 0 0 26.957 32.753H20.27C20.416 31.004 20.858 29.199 21.569 27.433 21.671 27.457 21.768 27.495 21.878 27.495H29.107A1.313 1.313 0 1 0 29.107 24.868H22.814A18.7 18.7 0 0 1 25.025 21.783C25.506 21.962 26.023 22.074 26.568 22.074A4.483 4.483 0 0 0 31.047 17.594C31.047 15.124 29.037 13.115 26.568 13.115S22.088 15.126 22.088 17.594C22.088 18.558 22.4 19.445 22.918 20.175 19.631 23.944 17.56 29.258 17.57 34.071 17.572 34.796 18.16 35.383 18.882 35.383H18.887C18.911 35.383 18.934 35.37 18.958 35.368 18.983 35.37 19.005 35.383 19.03 35.383H26.03L29.2 44.334A1.32 1.32 0 0 0 30.438 45.215 1.32 1.32 0 0 0 31.678 43.459zM26.566 15.739C27.587 15.739 28.418 16.57 28.418 17.591S27.588 19.444 26.566 19.444A1.855 1.855 0 0 1 24.712 17.591 1.857 1.857 0 0 1 26.566 15.739M45.754 28.48H44.713A5.22 5.22 0 0 0 41.158 25.164V18.854C41.158 18.127 40.564 17.527 39.84 17.527H37.279L38.205 12.233A1.314 1.314 0 1 0 35.617 11.781L33.535 23.694A1.313 1.313 0 0 0 34.83 25.235C35.457 25.235 36.013 24.785 36.125 24.147L36.822 20.158H38.531V25.133A5.23 5.23 0 0 0 34.869 28.484H28.12A1.753 1.753 0 0 0 28.12 31.989H44.007V43.39A1.751 1.751 0 1 0 47.512 43.39V30.246A1.77 1.77 0 0 0 45.754 28.48M39.791 27.578C40.568 27.578 41.256 27.947 41.734 28.48H37.85C38.328 27.947 39.016 27.578 39.791 27.578" data-fill-palette-color="accent"></path></svg></g></svg></g></svg></g></svg></g><g><path d="M0 123.6c0-68.262 55.338-123.6 123.6-123.6 52.761 0 97.801 33.058 115.536 79.592l-1.769 0c-17.652-45.602-61.933-77.941-113.767-77.942-67.351 0-121.95 54.599-121.95 121.95 0 67.351 54.599 121.95 121.95 121.95 51.834 0 96.115-32.339 113.767-77.942h1.769c-17.735 46.533-62.775 79.592-115.536 79.592-68.262 0-123.6-55.338-123.6-123.6z" fill="#000000" stroke="transparent" data-fill-palette-color="tertiary"></path></g></svg></g><defs></defs></svg><rect width="395.52" height="247.2" fill="none" stroke="none" visibility="hidden"></rect></g></svg></g></svg>